<?xml version="1.0" encoding="utf-8"?>
<!-- Generator: Adobe Illustrator 19.0.0, SVG Export Plug-In . SVG Version: 6.00 Build 0)  -->
<svg version="1.1" id="Layer_1" xmlns="http://www.w3.org/2000/svg" xmlns:xlink="http://www.w3.org/1999/xlink" x="0px" y="0px"
	 viewBox="0 0 432 288" style="enable-background:new 0 0 432 288;" xml:space="preserve">
<style type="text/css">
	.st0{fill:#000241;}
	.st1{fill:url(#SVGID_1_);}
	.st2{fill:url(#SVGID_2_);}
	.st3{fill:url(#SVGID_3_);}
	.st4{fill:url(#SVGID_4_);}
	.st5{fill:#A8A8A8;}
</style>
<rect class="st0" width="432" height="288"/>
<g>
	
		<radialGradient id="SVGID_1_" cx="-1024.6516" cy="1220.5985" r="59.3018" gradientTransform="matrix(3.0837 9.200000e-003 -5.500000e-003 1.8503 3387.4331 -2084.6086)" gradientUnits="userSpaceOnUse">
		<stop  offset="0.1591" style="stop-color:#00424A"/>
		<stop  offset="0.4487" style="stop-color:#00272C"/>
		<stop  offset="0.803" style="stop-color:#000B0C"/>
		<stop  offset="1" style="stop-color:#000000"/>
	</radialGradient>
	<path class="st1" d="M403.9,165c-0.2,60.6-82.2,109.5-183.2,109.2c-101-0.3-182.7-49.7-182.5-110.3
		c0.2-60.6,82.2-109.5,183.2-109.2C322.3,55,404,104.4,403.9,165z"/>
	
		<radialGradient id="SVGID_2_" cx="-1024.651" cy="1220.5985" r="30.2897" gradientTransform="matrix(3.0837 9.200000e-003 -5.500000e-003 1.8503 3387.4331 -2084.6086)" gradientUnits="userSpaceOnUse">
		<stop  offset="0.1591" style="stop-color:#00424A"/>
		<stop  offset="0.4487" style="stop-color:#00272C"/>
		<stop  offset="0.803" style="stop-color:#000B0C"/>
		<stop  offset="1" style="stop-color:#000000"/>
	</radialGradient>
	<path class="st2" d="M314.4,164.7c-0.1,30.9-42,55.9-93.6,55.8c-51.6-0.1-93.3-25.4-93.2-56.3c0.1-31,42-55.9,93.6-55.8
		C272.8,108.5,314.5,133.8,314.4,164.7z"/>
</g>
<g>
	
		<radialGradient id="SVGID_3_" cx="-1052.2734" cy="1203.2273" r="43.5939" gradientTransform="matrix(3.0837 9.200000e-003 -5.500000e-003 1.8503 3387.4331 -2084.6086)" gradientUnits="userSpaceOnUse">
		<stop  offset="0" style="stop-color:#8C0009"/>
		<stop  offset="0.2424" style="stop-color:#670007"/>
		<stop  offset="0.7601" style="stop-color:#1D0002"/>
		<stop  offset="1" style="stop-color:#000000"/>
	</radialGradient>
	<path class="st3" d="M270.3,132.4c-0.1,44.5-60.4,80.5-134.7,80.3C61.4,212.5,1.4,176.2,1.5,131.6c0.1-44.6,60.4-80.5,134.7-80.3
		C210.4,51.6,270.5,87.9,270.3,132.4z"/>
	
		<radialGradient id="SVGID_4_" cx="-1052.2731" cy="1203.2273" r="22.2666" gradientTransform="matrix(3.0837 9.200000e-003 -5.500000e-003 1.8503 3387.4331 -2084.6086)" gradientUnits="userSpaceOnUse">
		<stop  offset="0" style="stop-color:#8C0009"/>
		<stop  offset="0.2424" style="stop-color:#670007"/>
		<stop  offset="0.7601" style="stop-color:#1D0002"/>
		<stop  offset="1" style="stop-color:#000000"/>
	</radialGradient>
	<path class="st4" d="M204.6,132.2c-0.1,22.8-30.9,41.1-68.8,41c-37.9-0.1-68.6-18.7-68.5-41.4c0.1-22.8,30.9-41.1,68.8-41
		C174,91,204.6,109.5,204.6,132.2z"/>
</g>
<path class="st5" d="M276.9,97.5c1.3-11.1-5.8-21.7-17-24.5c-5.6-1.4-11.1-0.6-15.8,1.9c-1.5-15.6-15.5-28.7-34.1-26.1
	c-4.7,0.7-11.3,3.9-14.7,7.2c-5.1,5.1-8.1,11.3-8.9,17.5c-5.2-3.7-11.3-6.3-18.1-7.3c-19-2.8-37.8,8.1-44.8,26
	c-2.4,6.1-3.2,12.3-2.7,18.3c-37.4-5.5-47.7,52.1,2.8,52.1c4.2,0,14.5,0,27.9,0v4.6l-5.6,5.6v31.5c-1,0.4-1.7,1.3-1.7,2.4
	c0,1.4,1.1,2.6,2.6,2.6c1.4,0,2.6-1.1,2.6-2.6c0-1.1-0.7-2-1.7-2.4v-30.8l5.6-5.6v-5.3c3,0,6.2,0,9.6,0v16.3l-7.1,7.1v25.3l4,4
	c-0.5,0.9-0.3,2.1,0.5,2.9c1,1,2.6,1,3.6,0c1-1,1-2.6,0-3.6c-0.8-0.8-2-0.9-2.9-0.5l-3.5-3.6v-23.9l7.1-7.1v-17c3.1,0,6.3,0,9.6,0
	v25.1l-5.6,5.6v40.7l-3.4,3.4c-0.9-0.5-2.1-0.3-2.9,0.5c-1,1-1,2.6,0,3.6c1,1,2.6,1,3.6,0c0.8-0.8,0.9-2,0.5-2.9l3.9-3.9v-40.7
	l5.6-5.6v-25.8c3.1,0,6.3,0,9.6,0v36.2l4.8,4.8v20.4l-10.5,10.5v20.3c-1,0.4-1.7,1.3-1.7,2.4c0,1.4,1.1,2.6,2.6,2.6
	c1.4,0,2.6-1.1,2.6-2.6c0-1.1-0.7-2-1.7-2.4v-19.6l10.5-10.5v-21.8L187,198v-35.5c3.2,0,6.3,0,9.6,0v51.2l4,4v17.4
	c-1,0.4-1.7,1.3-1.7,2.4c0,1.4,1.1,2.6,2.6,2.6c1.4,0,2.6-1.1,2.6-2.6c0-1.1-0.7-2-1.7-2.4V217l-4-4v-50.5c3.2,0,6.4,0,9.6,0v30.4
	l2.1,2.1v52.7c-1,0.4-1.7,1.3-1.7,2.4c0,1.4,1.1,2.6,2.6,2.6c1.4,0,2.6-1.1,2.6-2.6c0-1.1-0.7-2-1.7-2.4v-53.4l-2.1-2.1v-29.7
	c3.2,0,6.4,0,9.6,0v5.3l5.8,5.8V198l-5.6,5.6v34.3l3.5,3.5c-0.5,0.9-0.3,2.1,0.5,2.9c1,1,2.6,1,3.6,0c1-1,1-2.6,0-3.6
	c-0.8-0.8-2-0.9-2.9-0.5l-3-3v-32.9l5.6-5.6v-25.7l-5.8-5.8v-4.6c3.2,0,6.4,0,9.6,0v29.1l5,5v51.7l3.2,3.2c-0.5,0.9-0.3,2.1,0.5,2.9
	c1,1,2.6,1,3.6,0c1-1,1-2.6,0-3.6c-0.8-0.8-2-0.9-2.9-0.5l-2.7-2.7v-51.7l-5-5v-28.4c3.2,0,6.4,0,9.6,0v18.3l5,5v48.8l1.5,1.5
	c-0.5,0.9-0.3,2.1,0.5,2.9c1,1,2.6,1,3.6,0c1-1,1-2.6,0-3.6c-0.8-0.8-2-0.9-2.9-0.5l-1.1-1.1V185l-5-5v-17.6c3.3,0,6.5,0,9.6,0v16.2
	l5.4,5.4v30.5l1.3,1.3c-0.5,0.9-0.3,2.1,0.5,2.9c1,1,2.6,1,3.6,0c1-1,1-2.6,0-3.6c-0.8-0.8-2-0.9-2.9-0.5l-0.8-0.8v-30.5l-5.4-5.4
	v-15.5c3.3,0,6.5,0,9.6,0v5.3l6.3,6.3v27.7c-1,0.4-1.7,1.3-1.7,2.4c0,1.4,1.1,2.6,2.6,2.6c1.4,0,2.6-1.1,2.6-2.6
	c0-1.1-0.7-2-1.7-2.4v-28.4l-6.3-6.3v-4.6c11.7,0,21.1,0,26.8,0C352.2,162.5,336.9,87.3,276.9,97.5z"/>
<g>
	<path class="st0" d="M152.1,132.8v1.9c0,0.4-0.2,0.6-0.6,0.6h-5.3c-1.8,0-3.1-0.5-4.1-1.5c-1-1-1.5-2.4-1.5-4.1v-7.2
		c0-1.8,0.5-3.2,1.5-4.1c1-1,2.3-1.5,4.1-1.5h5.3c0.4,0,0.6,0.2,0.6,0.6v1.9c0,0.4-0.2,0.6-0.6,0.6h-4.8c-1.7,0-2.6,0.9-2.6,2.7v6.9
		c0,1.8,0.9,2.7,2.6,2.7h4.8C151.9,132.2,152.1,132.4,152.1,132.8z"/>
	<path class="st0" d="M158.6,135.2h-2.3c-0.4,0-0.6-0.2-0.6-0.6v-24.1c0-0.4,0.2-0.6,0.6-0.6h2.3c0.4,0,0.6,0.2,0.6,0.6v24.1
		C159.2,135,159,135.2,158.6,135.2z"/>
	<path class="st0" d="M172.3,135.2h-3.2c-1.8,0-3.1-0.5-4.1-1.5c-1-1-1.5-2.4-1.5-4.1v-7.2c0-1.8,0.5-3.2,1.5-4.1
		c1-1,2.3-1.5,4.1-1.5h3.2c1.8,0,3.1,0.5,4.1,1.5c1,1,1.5,2.3,1.5,4.1v7.2c0,1.8-0.5,3.1-1.5,4.1
		C175.4,134.7,174.1,135.2,172.3,135.2z M169.6,132.2h2.2c1.7,0,2.6-0.9,2.6-2.6v-7c0-1.8-0.9-2.6-2.6-2.6h-2.2
		c-0.9,0-1.6,0.2-2,0.6c-0.4,0.4-0.6,1.1-0.6,2v7c0,0.9,0.2,1.6,0.6,2C168.1,131.9,168.7,132.2,169.6,132.2z"/>
	<path class="st0" d="M188.9,135.2h-1.6c-1.7,0-3.1-0.5-4-1.5c-0.9-1-1.4-2.3-1.4-4.1v-12.2c0-0.4,0.2-0.6,0.6-0.6h2.3
		c0.4,0,0.6,0.2,0.6,0.6v12c0,1.8,0.9,2.7,2.6,2.7h1.7c2,0,3-1,3-3.1v-11.6c0-0.4,0.2-0.6,0.6-0.6h2.3c0.4,0,0.6,0.2,0.6,0.6v17.1
		c0,0.4-0.2,0.6-0.6,0.6h-2.3c-0.4,0-0.6-0.2-0.6-0.6v-1.3h-0.1C191.9,134.6,190.7,135.2,188.9,135.2z"/>
	<path class="st0" d="M207.5,135.2h-1.8c-1.7,0-3.1-0.5-4-1.5s-1.4-2.3-1.4-4.1v-7.2c0-1.8,0.5-3.2,1.4-4.1c0.9-1,2.3-1.4,4-1.4h1.8
		c1.8,0,3,0.6,3.6,1.9h0.1v-8.2c0-0.4,0.2-0.6,0.6-0.6h2.3c0.4,0,0.6,0.2,0.6,0.6v24.1c0,0.4-0.2,0.6-0.6,0.6h-2.3
		c-0.4,0-0.6-0.2-0.6-0.6v-1.3h-0.1C210.6,134.6,209.4,135.2,207.5,135.2z M211.3,129.1V123c0-2-1-3.1-3-3.1h-1.9
		c-1.7,0-2.6,0.9-2.6,2.7v6.9c0,1.8,0.9,2.7,2.6,2.7h1.9C210.3,132.2,211.3,131.1,211.3,129.1z"/>
	<path class="st0" d="M226.2,125.2h-7.1c-0.4,0-0.6-0.2-0.6-0.6v-1.6c0-0.4,0.2-0.6,0.6-0.6h7.1c0.4,0,0.6,0.2,0.6,0.6v1.6
		C226.8,125,226.6,125.2,226.2,125.2z"/>
	<path class="st0" d="M230.5,134.6v-24.1c0-0.4,0.2-0.6,0.6-0.6h2.3c0.4,0,0.6,0.2,0.6,0.6v8.1h0.1c0.6-1.3,1.8-1.9,3.6-1.9h1.6
		c1.8,0,3.2,0.5,4.1,1.5c1,1,1.5,2.3,1.5,4.1v7.4c0,1.8-0.5,3.1-1.5,4.1c-1,1-2.4,1.5-4.1,1.5h-8.2
		C230.8,135.2,230.5,135,230.5,134.6z M234.4,132.2h4.5c1.7,0,2.6-0.9,2.6-2.7v-7.1c0-1.8-0.9-2.7-2.6-2.7H237c-2,0-3,1-3,3v9
		C234,132,234.2,132.2,234.4,132.2z"/>
	<path class="st0" d="M252.1,135.2h-2.3c-0.4,0-0.6-0.2-0.6-0.6v-17.1c0-0.4,0.2-0.6,0.6-0.6h2.3c0.4,0,0.6,0.2,0.6,0.6v1.4h0.1
		c0.2-0.6,0.7-1.1,1.4-1.4c0.7-0.4,1.4-0.5,2.3-0.5h1.3c0.4,0,0.6,0.2,0.6,0.6v1.9c0,0.5-0.2,0.6-0.6,0.6h-2.2c-2,0-3,1.1-3,3.3
		v11.4C252.7,135,252.5,135.2,252.1,135.2z"/>
	<path class="st0" d="M261.4,113.8v-3.3c0-0.4,0.2-0.6,0.6-0.6h2.3c0.4,0,0.6,0.2,0.6,0.6v3.3c0,0.4-0.2,0.6-0.6,0.6H262
		C261.6,114.4,261.4,114.2,261.4,113.8z M261.4,134.6v-17.1c0-0.4,0.2-0.6,0.6-0.6h2.3c0.4,0,0.6,0.2,0.6,0.6v17.1
		c0,0.2,0,0.4-0.1,0.5c-0.1,0.1-0.2,0.1-0.5,0.1H262C261.6,135.2,261.4,135,261.4,134.6z"/>
	<path class="st0" d="M271.4,135.2h-2.7c-0.5,0-0.7-0.2-0.4-0.6l4.8-8.7l-4.7-8.4c-0.3-0.4-0.2-0.6,0.3-0.6h2.8
		c0.5,0,0.8,0.2,0.9,0.6l2.9,6.2h0.1l2.7-6.2c0.2-0.4,0.5-0.6,0.9-0.6h2.7c0.5,0,0.6,0.2,0.4,0.6l-4.5,8.4l4.9,8.8
		c0.2,0.4,0.1,0.6-0.3,0.6h-2.8c-0.4,0-0.7-0.2-0.9-0.6l-3.1-6.4h-0.1l-3,6.4C272.1,135,271.8,135.2,271.4,135.2z"/>
</g>
<g>
	<path class="st0" d="M153.9,148.2h-1.6c-0.5,0-0.9-0.1-1.2-0.4s-0.4-0.7-0.4-1.2v-4.5c0-0.5,0.1-0.9,0.4-1.2s0.7-0.4,1.2-0.4h1.6
		c0.5,0,0.9,0.1,1.2,0.4s0.4,0.7,0.4,1.2v0.6c0,0.1,0,0.1-0.1,0.1h-0.2c-0.1,0-0.1,0-0.1-0.1v-0.6c0-0.4-0.1-0.7-0.3-1
		c-0.2-0.2-0.5-0.3-0.9-0.3h-1.6c-0.4,0-0.7,0.1-0.9,0.3c-0.2,0.2-0.3,0.6-0.3,1v4.4c0,0.4,0.1,0.7,0.3,1s0.5,0.3,0.9,0.3h1.6
		c0.4,0,0.7-0.1,0.9-0.3c0.2-0.2,0.3-0.6,0.3-1V146c0-0.1,0-0.1,0.1-0.1h0.2c0.1,0,0.1,0,0.1,0.1v0.6c0,0.5-0.1,0.9-0.4,1.2
		S154.4,148.2,153.9,148.2z"/>
	<path class="st0" d="M168.7,148.2h-1.5c-0.5,0-0.9-0.1-1.2-0.4s-0.4-0.7-0.4-1.2v-4.5c0-0.5,0.1-0.9,0.4-1.2s0.7-0.4,1.2-0.4h1.5
		c0.5,0,0.9,0.1,1.2,0.4s0.4,0.7,0.4,1.2v4.5c0,0.5-0.1,0.9-0.4,1.2S169.2,148.2,168.7,148.2z M167.2,147.9h1.5
		c0.4,0,0.7-0.1,0.9-0.3c0.2-0.2,0.3-0.6,0.3-1v-4.4c0-0.4-0.1-0.7-0.3-1c-0.2-0.2-0.5-0.3-0.9-0.3h-1.5c-0.4,0-0.7,0.1-0.9,0.3
		c-0.2,0.2-0.3,0.6-0.3,1v4.4c0,0.4,0.1,0.7,0.3,1S166.8,147.9,167.2,147.9z"/>
	<path class="st0" d="M186.5,140.5h0.3c0.1,0,0.1,0,0.1,0.1v7.5c0,0.1,0,0.1-0.1,0.1h-0.2c-0.1,0-0.1,0-0.1-0.1v-6.9h0l-2.4,5.2
		c0,0.1-0.1,0.1-0.1,0.1h-0.2c-0.1,0-0.1,0-0.1-0.1l-2.4-5.3h0v6.9c0,0.1,0,0.1-0.1,0.1h-0.2c-0.1,0-0.1,0-0.1-0.1v-7.5
		c0-0.1,0-0.1,0.1-0.1h0.3c0,0,0.1,0,0.1,0l2.5,5.5h0L186.5,140.5C186.4,140.5,186.4,140.5,186.5,140.5z"/>
	<path class="st0" d="M197.7,148.2h-0.2c-0.1,0-0.1,0-0.1-0.1v-7.5c0-0.1,0-0.1,0.1-0.1h2.7c0.5,0,0.9,0.1,1.2,0.4s0.4,0.7,0.4,1.2
		v1.5c0,0.5-0.1,0.9-0.4,1.2s-0.7,0.4-1.2,0.4h-2.3c-0.1,0-0.1,0-0.1,0.1v2.8C197.8,148.2,197.8,148.2,197.7,148.2z M197.9,144.9
		h2.3c0.4,0,0.7-0.1,0.9-0.3c0.2-0.2,0.3-0.6,0.3-1v-1.5c0-0.4-0.1-0.7-0.3-1c-0.2-0.2-0.5-0.3-0.9-0.3h-2.3c-0.1,0-0.1,0-0.1,0.1
		v3.9C197.8,144.9,197.8,144.9,197.9,144.9z"/>
	<path class="st0" d="M216.4,140.5h0.2c0.1,0,0.1,0,0.1,0.1v6c0,0.5-0.1,0.9-0.4,1.2s-0.7,0.4-1.2,0.4h-1.3c-0.5,0-0.9-0.1-1.2-0.4
		s-0.4-0.7-0.4-1.2v-6c0-0.1,0-0.1,0.1-0.1h0.2c0.1,0,0.1,0,0.1,0.1v6c0,0.4,0.1,0.7,0.3,1s0.5,0.3,0.9,0.3h1.3
		c0.4,0,0.7-0.1,0.9-0.3c0.2-0.2,0.3-0.6,0.3-1v-6C216.3,140.6,216.3,140.5,216.4,140.5z"/>
	<path class="st0" d="M228.6,148.2h-0.2c-0.1,0-0.1,0-0.1-0.1V141c0-0.1,0-0.1-0.1-0.1h-1.8c-0.1,0-0.1,0-0.1-0.1v-0.1
		c0-0.1,0-0.1,0.1-0.1h4.3c0.1,0,0.1,0,0.1,0.1v0.1c0,0.1,0,0.1-0.1,0.1h-1.8c-0.1,0-0.1,0-0.1,0.1v7.2
		C228.7,148.2,228.7,148.2,228.6,148.2z"/>
	<path class="st0" d="M240.9,140.6v7.5c0,0.1,0,0.1-0.1,0.1h-0.2c-0.1,0-0.1,0-0.1-0.1v-7.5c0-0.1,0-0.1,0.1-0.1h0.2
		C240.9,140.5,240.9,140.6,240.9,140.6z"/>
	<path class="st0" d="M251.8,148.2h-0.2c-0.1,0-0.1,0-0.1-0.1v-7.5c0-0.1,0-0.1,0.1-0.1h0.2c0,0,0.1,0,0.1,0l4,6.8h0v-6.7
		c0-0.1,0-0.1,0.1-0.1h0.2c0.1,0,0.1,0,0.1,0.1v7.5c0,0.1,0,0.1-0.1,0.1h-0.1c-0.1,0-0.1,0-0.1-0.1l-4-6.8h0v6.8
		C251.9,148.2,251.9,148.2,251.8,148.2z"/>
	<path class="st0" d="M269.7,148.2h-1.3c-0.5,0-0.9-0.1-1.2-0.4c-0.3-0.3-0.4-0.7-0.4-1.2v-4.5c0-0.5,0.1-0.9,0.4-1.2
		c0.3-0.3,0.7-0.4,1.2-0.4h1.3c0.5,0,0.9,0.1,1.2,0.4s0.4,0.7,0.4,1.2v0.6c0,0.1,0,0.1-0.1,0.1H271c-0.1,0-0.1,0-0.1-0.1v-0.6
		c0-0.4-0.1-0.7-0.3-1c-0.2-0.2-0.5-0.3-0.9-0.3h-1.3c-0.4,0-0.7,0.1-0.9,0.3c-0.2,0.2-0.3,0.6-0.3,1v4.4c0,0.4,0.1,0.7,0.3,1
		c0.2,0.2,0.5,0.3,0.9,0.3h1.3c0.4,0,0.7-0.1,0.9-0.3c0.2-0.2,0.3-0.6,0.3-1v-1.8c0-0.1,0-0.1-0.1-0.1h-1.5c-0.1,0-0.1,0-0.1-0.1
		v-0.1c0-0.1,0-0.1,0.1-0.1h1.8c0.1,0,0.2,0.1,0.2,0.2v2c0,0.5-0.1,0.9-0.4,1.2S270.2,148.2,269.7,148.2z"/>
</g>
</svg>
