<?xml version="1.0" encoding="utf-8"?>
<!-- Generator: Adobe Illustrator 19.0.0, SVG Export Plug-In . SVG Version: 6.00 Build 0)  -->
<svg version="1.1" id="Layer_1" xmlns="http://www.w3.org/2000/svg" xmlns:xlink="http://www.w3.org/1999/xlink" x="0px" y="0px"
	 viewBox="-76 321.5 457.3 151.5" style="enable-background:new -76 321.5 457.3 151.5;" xml:space="preserve">
<style type="text/css">
	.st0{fill:#231F20;}
	.st1{fill:#F7B76B;stroke:#231F20;stroke-width:1.0969;stroke-miterlimit:10;stroke-dasharray:1.8281,1.8281,1.8281;}
	.st2{fill:#F9C989;}
	
		.st3{fill:none;stroke:#231F20;stroke-width:0.6;stroke-miterlimit:10;stroke-dasharray:1.0054,1.0054,1.0054,1.0054,1.0054,1.0054;}
	.st4{fill:none;stroke:#FFFFFF;stroke-width:0.6;stroke-miterlimit:10;}
	.st5{fill:#FFFFFF;stroke:#231F20;stroke-width:0.6;stroke-miterlimit:10;}
	.st6{opacity:0.3;fill:#EB008B;stroke:#231F20;stroke-width:0.6;stroke-miterlimit:10;enable-background:new    ;}
	.st7{fill:#FFFFFF;}
	.st8{opacity:0.3;fill:#EE4036;stroke:#231F20;stroke-width:0.6;stroke-miterlimit:10;enable-background:new    ;}
	.st9{fill:#8E8D8B;}
	.st10{fill:none;stroke:#FFFFFF;stroke-width:1.0969;stroke-miterlimit:10;stroke-dasharray:1.8281,1.8281,1.8281;}
</style>
<rect id="XMLID_111_" x="-76" y="321.5" class="st0" width="457.3" height="151.5"/>
<path id="XMLID_8_" class="st1" d="M370.5,434h-328c-3,0-5.5-2.5-5.5-5.5v-86c0-3,2.5-5.5,5.5-5.5h328c3,0,5.5,2.5,5.5,5.5v86
	C376,431.5,373.5,434,370.5,434z"/>
<g id="XMLID_3_">
	<path id="XMLID_31_" class="st2" d="M187.2,405.3H61.8c-4,0-7.2-3.2-7.2-7.2V350c0-4,3.2-7.2,7.2-7.2h125.4c4,0,7.2,3.2,7.2,7.2
		v48.1C194.4,402,191.2,405.3,187.2,405.3z"/>
	<path id="XMLID_30_" class="st3" d="M187.2,405.3H61.8c-4,0-7.2-3.2-7.2-7.2V350c0-4,3.2-7.2,7.2-7.2h125.4c4,0,7.2,3.2,7.2,7.2
		v48.1C194.4,402,191.2,405.3,187.2,405.3z"/>
</g>
<line id="XMLID_2_" class="st4" x1="-2.7" y1="374.4" x2="42.7" y2="374.4"/>
<circle id="XMLID_1_" class="st5" cx="56.3" cy="374.4" r="13.6"/>
<g id="XMLID_10_">
	<g id="XMLID_5_">
		<rect id="XMLID_7_" x="90.8" y="355.3" class="st6" width="80.9" height="30.6"/>
		<rect id="XMLID_6_" x="88.3" y="358.4" class="st6" width="80.9" height="30.6"/>
		<rect id="XMLID_4_" x="85.7" y="361.5" class="st6" width="80.9" height="30.6"/>
	</g>
</g>
<g id="XMLID_327_">
	<path id="XMLID_328_" class="st7" d="M-53.1,367c-0.2,0.1-0.7,0.2-1.3,0.2c-1.4,0-2.4-0.9-2.4-2.5c0-1.5,1-2.5,2.5-2.5
		c0.6,0,1,0.1,1.2,0.2l-0.2,0.5c-0.2-0.1-0.6-0.2-1-0.2c-1.1,0-1.9,0.7-1.9,2c0,1.2,0.7,2,1.9,2c0.4,0,0.8-0.1,1-0.2L-53.1,367z"/>
	<path id="XMLID_330_" class="st7" d="M-49.2,365.4c0,1.3-0.9,1.9-1.7,1.9c-0.9,0-1.7-0.7-1.7-1.8c0-1.2,0.8-1.9,1.7-1.9
		C-49.9,363.6-49.2,364.3-49.2,365.4z M-52,365.4c0,0.8,0.4,1.3,1.1,1.3c0.6,0,1.1-0.6,1.1-1.4c0-0.6-0.3-1.3-1-1.3
		S-52,364.7-52,365.4z"/>
	<path id="XMLID_333_" class="st7" d="M-48.4,364.6c0-0.4,0-0.7,0-0.9h0.6v0.6l0,0c0.2-0.3,0.6-0.7,1.2-0.7c0.5,0,1.2,0.3,1.2,1.5
		v2.1H-46v-2c0-0.6-0.2-1-0.8-1c-0.4,0-0.7,0.3-0.9,0.6c0,0.1,0,0.2,0,0.3v2.1h-0.6v-2.6H-48.4z"/>
	<path id="XMLID_335_" class="st7" d="M-41.9,367c-0.2,0.1-0.5,0.2-1,0.2c-1.1,0-1.7-0.7-1.7-1.8s0.7-1.9,1.9-1.9
		c0.4,0,0.7,0.1,0.9,0.2l-0.1,0.5c-0.2-0.1-0.4-0.2-0.7-0.2c-0.8,0-1.2,0.6-1.2,1.3c0,0.8,0.5,1.3,1.2,1.3c0.4,0,0.6-0.1,0.8-0.2
		L-41.9,367z"/>
	<path id="XMLID_337_" class="st7" d="M-38.3,366.2c0,0.4,0,0.7,0,1h-0.6v-0.6l0,0c-0.2,0.3-0.5,0.6-1.2,0.6c-0.5,0-1.2-0.3-1.2-1.5
		v-2h0.6v1.9c0,0.7,0.2,1.1,0.8,1.1c0.4,0,0.7-0.3,0.8-0.6c0-0.1,0.1-0.2,0.1-0.3v-2.1h0.6v2.5H-38.3z"/>
	<path id="XMLID_339_" class="st7" d="M-37.2,364.7c0-0.4,0-0.8,0-1.1h0.6v0.7l0,0c0.2-0.5,0.5-0.8,1-0.8c0.1,0,0.1,0,0.2,0v0.6
		c-0.1,0-0.1,0-0.2,0c-0.4,0-0.8,0.3-0.9,0.8c0,0.1,0,0.2,0,0.3v1.9h-0.6L-37.2,364.7L-37.2,364.7z"/>
	<path id="XMLID_341_" class="st7" d="M-34.9,364.7c0-0.4,0-0.8,0-1.1h0.6v0.7l0,0c0.2-0.5,0.5-0.8,1-0.8c0.1,0,0.1,0,0.2,0v0.6
		c-0.1,0-0.1,0-0.2,0c-0.4,0-0.8,0.3-0.8,0.8c0,0.1,0,0.2,0,0.3v1.9h-0.6v-2.4H-34.9z"/>
	<path id="XMLID_343_" class="st7" d="M-32.2,365.5c0,0.9,0.6,1.2,1.2,1.2c0.5,0,0.7-0.1,1-0.2l0.1,0.5c-0.2,0.1-0.6,0.2-1.2,0.2
		c-1.1,0-1.7-0.7-1.7-1.8s0.6-1.9,1.6-1.9c1.1,0,1.4,1,1.4,1.6c0,0.1,0,0.2,0,0.3h-2.4V365.5z M-30.4,365.1c0-0.4-0.2-1-0.9-1
		c-0.6,0-0.9,0.6-1,1H-30.4z"/>
	<path id="XMLID_346_" class="st7" d="M-29,364.6c0-0.4,0-0.7,0-0.9h0.6v0.6l0,0c0.2-0.3,0.6-0.7,1.2-0.7c0.5,0,1.2,0.3,1.2,1.5v2.1
		h-0.6v-2c0-0.6-0.2-1-0.8-1c-0.4,0-0.7,0.3-0.9,0.6c0,0.1,0,0.2,0,0.3v2.1H-29V364.6z"/>
	<path id="XMLID_348_" class="st7" d="M-24.2,362.6v1h0.9v0.5h-0.9v1.9c0,0.4,0.1,0.7,0.5,0.7c0.2,0,0.3,0,0.4,0v0.5
		c-0.1,0.1-0.3,0.1-0.6,0.1s-0.5-0.1-0.7-0.3s-0.2-0.5-0.2-0.9v-1.9h-0.5v-0.5h0.5v-0.8L-24.2,362.6z"/>
	<path id="XMLID_350_" class="st7" d="M-21.1,364.7c0-0.4,0-0.8,0-1.1h0.6v0.7l0,0c0.2-0.5,0.5-0.8,1-0.8c0.1,0,0.1,0,0.2,0v0.6
		c-0.1,0-0.1,0-0.2,0c-0.4,0-0.8,0.3-0.9,0.8c0,0.1,0,0.2,0,0.3v1.9H-21L-21.1,364.7L-21.1,364.7z"/>
	<path id="XMLID_352_" class="st7" d="M-18.5,365.5c0,0.9,0.6,1.2,1.2,1.2c0.5,0,0.7-0.1,1-0.2l0.1,0.5c-0.2,0.1-0.6,0.2-1.2,0.2
		c-1.1,0-1.7-0.7-1.7-1.8s0.6-1.9,1.6-1.9c1.1,0,1.4,1,1.4,1.6c0,0.1,0,0.2,0,0.3h-2.4V365.5z M-16.6,365.1c0-0.4-0.2-1-0.9-1
		c-0.6,0-0.9,0.6-1,1H-16.6z"/>
	<path id="XMLID_355_" class="st7" d="M-12.8,366.6L-12.8,366.6c-0.2,0.3-0.6,0.6-1.2,0.6c-0.8,0-1.5-0.7-1.5-1.8
		c0-1.3,0.8-1.9,1.6-1.9c0.5,0,0.9,0.3,1.1,0.6l0,0v-0.5h0.6c0,0.3,0,0.6,0,1v4h-0.6C-12.8,368.6-12.8,366.6-12.8,366.6z
		 M-12.8,365.1c0-0.1,0-0.2,0-0.3c-0.1-0.4-0.4-0.7-0.9-0.7c-0.7,0-1.1,0.6-1.1,1.3c0,0.7,0.3,1.3,1,1.3c0.4,0,0.8-0.3,0.9-0.7
		c0-0.1,0.1-0.2,0.1-0.3V365.1z"/>
	<path id="XMLID_358_" class="st7" d="M-8.2,366.2c0,0.4,0,0.7,0,1h-0.6v-0.6l0,0c-0.2,0.3-0.5,0.6-1.2,0.6c-0.5,0-1.2-0.3-1.2-1.5
		v-2h0.6v1.9c0,0.7,0.2,1.1,0.8,1.1c0.4,0,0.7-0.3,0.8-0.6c0-0.1,0.1-0.2,0.1-0.3v-2.1h0.6L-8.2,366.2L-8.2,366.2z"/>
	<path id="XMLID_360_" class="st7" d="M-6.8,365.5c0,0.9,0.6,1.2,1.2,1.2c0.5,0,0.7-0.1,1-0.2l0.1,0.5c-0.2,0.1-0.6,0.2-1.2,0.2
		c-1.1,0-1.7-0.7-1.7-1.8s0.6-1.9,1.6-1.9c1.1,0,1.4,1,1.4,1.6c0,0.1,0,0.2,0,0.3h-2.4V365.5z M-5,365.1c0-0.4-0.2-1-0.9-1
		c-0.6,0-0.9,0.6-1,1H-5z"/>
	<path id="XMLID_363_" class="st7" d="M-3.7,366.5c0.2,0.1,0.5,0.3,0.8,0.3c0.5,0,0.7-0.2,0.7-0.5c0-0.3-0.2-0.5-0.6-0.6
		c-0.6-0.2-0.9-0.6-0.9-1c0-0.6,0.5-1,1.2-1c0.4,0,0.7,0.1,0.9,0.2l-0.2,0.5c-0.1-0.1-0.4-0.2-0.7-0.2c-0.4,0-0.6,0.2-0.6,0.5
		c0,0.3,0.2,0.4,0.7,0.6c0.6,0.2,0.9,0.5,0.9,1.1s-0.5,1-1.3,1c-0.4,0-0.7-0.1-1-0.2L-3.7,366.5z"/>
	<path id="XMLID_365_" class="st7" d="M0,362.6v1h1v0.5H0v1.9c0,0.4,0.1,0.7,0.5,0.7c0.2,0,0.3,0,0.4,0v0.5
		c-0.1,0.1-0.3,0.1-0.6,0.1c-0.3,0-0.5-0.1-0.7-0.3s-0.2-0.5-0.2-0.9v-1.9h-0.5v-0.5h0.5v-0.8L0,362.6z"/>
	<path id="XMLID_367_" class="st7" d="M1.6,366.5c0.2,0.1,0.5,0.3,0.8,0.3c0.5,0,0.7-0.2,0.7-0.5c0-0.3-0.2-0.5-0.6-0.6
		c-0.6-0.2-0.9-0.6-0.9-1c0-0.6,0.5-1,1.2-1c0.4,0,0.7,0.1,0.9,0.2l-0.2,0.5c-0.1-0.1-0.4-0.2-0.7-0.2c-0.4,0-0.6,0.2-0.6,0.5
		c0,0.3,0.2,0.4,0.7,0.6c0.6,0.2,0.9,0.5,0.9,1.1s-0.5,1-1.3,1c-0.4,0-0.7-0.1-1-0.2L1.6,366.5z"/>
	<path id="XMLID_369_" class="st7" d="M-56.4,375.8v-3h-0.5v-0.5h0.5v-0.2c0-0.5,0.1-0.9,0.4-1.2c0.2-0.2,0.6-0.3,0.8-0.3
		s0.4,0.1,0.5,0.1l-0.1,0.5c-0.1,0-0.2-0.1-0.4-0.1c-0.5,0-0.7,0.5-0.7,1v0.2h0.8v0.5h-0.8v3H-56.4z"/>
	<path id="XMLID_371_" class="st7" d="M-51.3,374c0,1.3-0.9,1.9-1.7,1.9c-0.9,0-1.7-0.7-1.7-1.8c0-1.2,0.8-1.9,1.7-1.9
		C-52,372.2-51.3,372.9-51.3,374z M-54.1,374c0,0.8,0.4,1.3,1.1,1.3c0.6,0,1.1-0.6,1.1-1.4c0-0.6-0.3-1.3-1-1.3
		C-53.6,372.6-54.1,373.4-54.1,374z"/>
	<path id="XMLID_374_" class="st7" d="M-50.5,373.4c0-0.4,0-0.8,0-1.1h0.5v0.7l0,0c0.2-0.5,0.5-0.8,1-0.8c0.1,0,0.1,0,0.2,0v0.6
		c-0.1,0-0.1,0-0.2,0c-0.4,0-0.8,0.3-0.8,0.8c0,0.1,0,0.2,0,0.3v1.9h-0.6L-50.5,373.4L-50.5,373.4z"/>
	<path id="XMLID_376_" class="st7" d="M-46.7,375c0.3,0.2,0.7,0.3,1.1,0.3c0.6,0,1-0.3,1-0.8s-0.3-0.7-0.9-1
		c-0.8-0.3-1.3-0.7-1.3-1.4c0-0.8,0.6-1.3,1.6-1.3c0.5,0,0.9,0.1,1.1,0.2l-0.2,0.5c-0.2-0.1-0.5-0.2-0.9-0.2c-0.7,0-0.9,0.4-0.9,0.7
		c0,0.5,0.3,0.7,1,0.9c0.8,0.3,1.2,0.7,1.2,1.4c0,0.7-0.6,1.4-1.7,1.4c-0.5,0-1-0.1-1.2-0.3L-46.7,375z"/>
	<path id="XMLID_378_" class="st7" d="M-42.7,374.1c0,0.9,0.6,1.2,1.2,1.2c0.5,0,0.7-0.1,1-0.2l0.1,0.5c-0.2,0.1-0.6,0.2-1.2,0.2
		c-1.1,0-1.7-0.7-1.7-1.8s0.6-1.9,1.6-1.9c1.1,0,1.4,1,1.4,1.6c0,0.1,0,0.2,0,0.3h-2.4V374.1z M-40.8,373.7c0-0.4-0.2-1-0.9-1
		c-0.6,0-0.9,0.6-1,1H-40.8z"/>
	<path id="XMLID_381_" class="st7" d="M-39.4,373.4c0-0.4,0-0.8,0-1.1h0.6v0.7l0,0c0.2-0.5,0.5-0.8,1-0.8c0.1,0,0.1,0,0.2,0v0.6
		c-0.1,0-0.1,0-0.2,0c-0.4,0-0.8,0.3-0.9,0.8c0,0.1,0,0.2,0,0.3v1.9h-0.6L-39.4,373.4L-39.4,373.4z"/>
	<path id="XMLID_383_" class="st7" d="M-36.7,372.3l0.7,2c0.1,0.3,0.2,0.6,0.3,0.9l0,0c0.1-0.3,0.2-0.6,0.3-0.9l0.7-2h0.7l-1.4,3.5
		H-36l-1.3-3.5H-36.7z"/>
	<path id="XMLID_385_" class="st7" d="M-32.7,371.3c0,0.2-0.2,0.4-0.4,0.4s-0.4-0.2-0.4-0.4c0-0.2,0.2-0.4,0.4-0.4
		S-32.7,371.1-32.7,371.3z M-33.4,375.8v-3.5h0.6v3.5H-33.4z"/>
	<path id="XMLID_388_" class="st7" d="M-29.3,375.6c-0.2,0.1-0.5,0.2-1,0.2c-1.1,0-1.7-0.7-1.7-1.8s0.7-1.9,1.9-1.9
		c0.4,0,0.7,0.1,0.9,0.2l-0.1,0.5c-0.2-0.1-0.4-0.2-0.7-0.2c-0.8,0-1.2,0.6-1.2,1.3c0,0.8,0.5,1.3,1.2,1.3c0.4,0,0.6-0.1,0.8-0.2
		L-29.3,375.6z"/>
	<path id="XMLID_390_" class="st7" d="M-28.2,374.1c0,0.9,0.6,1.2,1.2,1.2c0.5,0,0.7-0.1,1-0.2l0.1,0.5c-0.2,0.1-0.6,0.2-1.2,0.2
		c-1.1,0-1.7-0.7-1.7-1.8s0.6-1.9,1.6-1.9c1.1,0,1.4,1,1.4,1.6c0,0.1,0,0.2,0,0.3h-2.4V374.1z M-26.4,373.7c0-0.4-0.2-1-0.9-1
		c-0.6,0-0.9,0.6-1,1H-26.4z"/>
	<path id="XMLID_393_" class="st7" d="M-23.3,373.6v0.5h-1.8v-0.5H-23.3z"/>
	<path id="XMLID_395_" class="st7" d="M-20,375.8l-0.6-1.1c-0.3-0.4-0.4-0.7-0.6-1l0,0c-0.1,0.3-0.3,0.5-0.5,1l-0.6,1.1H-23l1.5-2.5
		l-1.5-2.4h0.7l0.6,1.1c0.2,0.3,0.3,0.6,0.4,0.8l0,0c0.1-0.3,0.3-0.5,0.4-0.8l0.7-1.1h0.7l-1.5,2.4l1.5,2.5
		C-19.5,375.8-20,375.8-20,375.8z"/>
</g>
<line id="XMLID_12_" class="st4" x1="194.4" y1="373.7" x2="228.7" y2="373.7"/>
<g id="XMLID_19_">
	<path id="XMLID_28_" class="st2" d="M360.7,404.9H235.3c-4,0-7.2-3.2-7.2-7.2v-48.1c0-4,3.2-7.2,7.2-7.2h125.4c4,0,7.2,3.2,7.2,7.2
		v48.1C367.9,401.7,364.7,404.9,360.7,404.9z"/>
	<path id="XMLID_27_" class="st3" d="M360.7,404.9H235.3c-4,0-7.2-3.2-7.2-7.2v-48.1c0-4,3.2-7.2,7.2-7.2h125.4c4,0,7.2,3.2,7.2,7.2
		v48.1C367.9,401.7,364.7,404.9,360.7,404.9z"/>
</g>
<g id="XMLID_13_">
	<g id="XMLID_15_">
		<rect id="XMLID_18_" x="264.3" y="354.9" class="st8" width="80.9" height="30.6"/>
		<rect id="XMLID_17_" x="261.8" y="358" class="st8" width="80.9" height="30.6"/>
		<rect id="XMLID_16_" x="259.2" y="361.1" class="st8" width="80.9" height="30.6"/>
	</g>
	<g id="XMLID_288_">
		<path id="XMLID_289_" class="st0" d="M273.4,374.8l-0.5,1.5h-0.6l1.6-4.9h0.8l1.7,4.9h-0.7l-0.5-1.5H273.4z M274.9,374.4l-0.5-1.4
			c-0.1-0.3-0.2-0.6-0.3-0.9l0,0c-0.1,0.3-0.2,0.6-0.2,0.9l-0.5,1.4H274.9z"/>
		<path id="XMLID_292_" class="st0" d="M276.9,374c0-0.4,0-0.8,0-1.1h0.6v0.7l0,0c0.2-0.5,0.5-0.8,1-0.8c0.1,0,0.1,0,0.2,0v0.6
			c-0.1,0-0.1,0-0.2,0c-0.4,0-0.8,0.3-0.8,0.8c0,0.1,0,0.2,0,0.3v1.9h-0.6V374H276.9z"/>
		<path id="XMLID_294_" class="st0" d="M279.3,374c0-0.4,0-0.8,0-1.1h0.6v0.7l0,0c0.2-0.5,0.5-0.8,1-0.8c0.1,0,0.1,0,0.2,0v0.6
			c-0.1,0-0.1,0-0.2,0c-0.4,0-0.8,0.3-0.9,0.8c0,0.1,0,0.2,0,0.3v1.9h-0.6V374H279.3z"/>
		<path id="XMLID_296_" class="st0" d="M283.6,376.4l-0.1-0.4l0,0c-0.2,0.3-0.6,0.5-1.1,0.5c-0.7,0-1.1-0.5-1.1-1
			c0-0.8,0.7-1.3,2.1-1.3v-0.1c0-0.3-0.1-0.8-0.8-0.8c-0.3,0-0.7,0.1-0.9,0.3l-0.1-0.4c0.3-0.2,0.7-0.3,1.1-0.3
			c1.1,0,1.3,0.7,1.3,1.4v1.2c0,0.3,0,0.6,0.1,0.8h-0.5V376.4z M283.5,374.6c-0.7,0-1.5,0.1-1.5,0.8c0,0.4,0.3,0.6,0.6,0.6
			c0.5,0,0.7-0.3,0.8-0.6c0-0.1,0-0.1,0-0.2v-0.6H283.5z"/>
		<path id="XMLID_299_" class="st0" d="M285.3,372.9l0.8,2.1c0.1,0.2,0.2,0.5,0.2,0.7l0,0c0.1-0.2,0.1-0.5,0.2-0.7l0.7-2h0.7l-1,2.5
			c-0.5,1.2-0.8,1.8-1.2,2.2c-0.3,0.3-0.6,0.4-0.8,0.4l-0.2-0.5c0.2-0.1,0.4-0.2,0.6-0.3c0.2-0.1,0.4-0.4,0.5-0.7
			c0-0.1,0.1-0.1,0.1-0.2c0,0,0-0.1,0-0.2l-1.3-3.2h0.7V372.9z"/>
		<path id="XMLID_301_" class="st0" d="M293.1,374.6c0,1.3-0.9,1.9-1.7,1.9c-0.9,0-1.7-0.7-1.7-1.8c0-1.2,0.8-1.9,1.7-1.9
			C292.4,372.8,293.1,373.5,293.1,374.6z M290.4,374.6c0,0.8,0.4,1.3,1.1,1.3c0.6,0,1.1-0.6,1.1-1.4c0-0.6-0.3-1.3-1-1.3
			S290.4,374,290.4,374.6z"/>
		<path id="XMLID_304_" class="st0" d="M294,376.4v-3h-0.5v-0.5h0.5v-0.2c0-0.5,0.1-0.9,0.4-1.2c0.2-0.2,0.6-0.3,0.8-0.3
			c0.2,0,0.4,0.1,0.5,0.1l-0.1,0.5c-0.1,0-0.2-0.1-0.4-0.1c-0.5,0-0.7,0.5-0.7,1v0.2h0.8v0.5h-0.8v3H294z"/>
		<path id="XMLID_306_" class="st0" d="M297.5,375.6c0.3,0.2,0.7,0.3,1.1,0.3c0.6,0,1-0.3,1-0.8s-0.3-0.7-0.9-1
			c-0.8-0.3-1.3-0.7-1.3-1.4c0-0.8,0.6-1.3,1.6-1.3c0.5,0,0.9,0.1,1.1,0.2l-0.2,0.5c-0.2-0.1-0.5-0.2-0.9-0.2
			c-0.7,0-0.9,0.4-0.9,0.7c0,0.5,0.3,0.7,1,0.9c0.8,0.3,1.2,0.7,1.2,1.4c0,0.7-0.6,1.4-1.7,1.4c-0.5,0-1-0.1-1.2-0.3L297.5,375.6z"
			/>
		<path id="XMLID_308_" class="st0" d="M301.5,374.7c0,0.9,0.6,1.2,1.2,1.2c0.5,0,0.7-0.1,1-0.2l0.1,0.5c-0.2,0.1-0.6,0.2-1.2,0.2
			c-1.1,0-1.7-0.7-1.7-1.8s0.6-1.9,1.6-1.9c1.1,0,1.4,1,1.4,1.6c0,0.1,0,0.2,0,0.3h-2.4V374.7z M303.3,374.3c0-0.4-0.2-1-0.9-1
			c-0.6,0-0.9,0.6-1,1H303.3z"/>
		<path id="XMLID_311_" class="st0" d="M304.7,374c0-0.4,0-0.8,0-1.1h0.6v0.7l0,0c0.2-0.5,0.5-0.8,1-0.8c0.1,0,0.1,0,0.2,0v0.6
			c-0.1,0-0.1,0-0.2,0c-0.4,0-0.8,0.3-0.9,0.8c0,0.1,0,0.2,0,0.3v1.9h-0.6V374H304.7z"/>
		<path id="XMLID_313_" class="st0" d="M307.5,372.9l0.7,2c0.1,0.3,0.2,0.6,0.3,0.9l0,0c0.1-0.3,0.2-0.6,0.3-0.9l0.7-2h0.7l-1.4,3.5
			h-0.6l-1.3-3.5H307.5z"/>
		<path id="XMLID_315_" class="st0" d="M311.4,371.9c0,0.2-0.2,0.4-0.4,0.4c-0.2,0-0.4-0.2-0.4-0.4c0-0.2,0.2-0.4,0.4-0.4
			C311.3,371.5,311.4,371.7,311.4,371.9z M310.7,376.4v-3.5h0.6v3.5H310.7z"/>
		<path id="XMLID_318_" class="st0" d="M314.9,376.2c-0.2,0.1-0.5,0.2-1,0.2c-1.1,0-1.7-0.7-1.7-1.8s0.7-1.9,1.9-1.9
			c0.4,0,0.7,0.1,0.9,0.2l-0.1,0.5c-0.2-0.1-0.4-0.2-0.7-0.2c-0.8,0-1.2,0.6-1.2,1.3c0,0.8,0.5,1.3,1.2,1.3c0.4,0,0.6-0.1,0.8-0.2
			L314.9,376.2z"/>
		<path id="XMLID_320_" class="st0" d="M316,374.7c0,0.9,0.6,1.2,1.2,1.2c0.5,0,0.7-0.1,1-0.2l0.1,0.5c-0.2,0.1-0.6,0.2-1.2,0.2
			c-1.1,0-1.7-0.7-1.7-1.8s0.6-1.9,1.6-1.9c1.1,0,1.4,1,1.4,1.6c0,0.1,0,0.2,0,0.3H316V374.7z M317.8,374.3c0-0.4-0.2-1-0.9-1
			c-0.6,0-0.9,0.6-1,1H317.8z"/>
		<path id="XMLID_323_" class="st0" d="M320.9,374.2v0.5h-1.8v-0.5H320.9z"/>
		<path id="XMLID_325_" class="st0" d="M324.1,376.4l-0.6-1.1c-0.3-0.4-0.4-0.7-0.6-1l0,0c-0.1,0.3-0.3,0.5-0.5,1l-0.6,1.1h-0.7
			l1.5-2.5l-1.4-2.4h0.7l0.6,1.1c0.2,0.3,0.3,0.6,0.4,0.8l0,0c0.1-0.3,0.3-0.5,0.4-0.8l0.7-1.1h0.7l-1.5,2.4l1.5,2.5H324.1z"/>
	</g>
</g>
<g id="XMLID_11_">
	<path id="XMLID_14_" d="M153.2,414.9h0.8v5.4h2.6v0.7h-3.4L153.2,414.9L153.2,414.9z"/>
	<path id="XMLID_114_" d="M158.2,414.9v6.1h-0.8v-6.1H158.2z"/>
	<path id="XMLID_116_" d="M159.6,421v-6.1h0.9l1.9,3.1c0.5,0.7,0.8,1.4,1.1,2l0,0c-0.1-0.8-0.1-1.5-0.1-2.5V415h0.7v6.1h-0.8
		l-1.9-3.1c-0.4-0.7-0.8-1.4-1.1-2l0,0c0,0.8,0.1,1.5,0.1,2.5v2.6h-0.8V421z"/>
	<path id="XMLID_118_" d="M166.3,414.9v3.6c0,1.4,0.6,1.9,1.4,1.9c0.9,0,1.5-0.6,1.5-1.9v-3.6h0.8v3.6c0,1.9-1,2.6-2.3,2.6
		c-1.2,0-2.2-0.7-2.2-2.6v-3.6H166.3z"/>
	<path id="XMLID_120_" d="M174.6,421l-0.8-1.3c-0.3-0.5-0.5-0.8-0.7-1.2l0,0c-0.2,0.4-0.3,0.7-0.7,1.2l-0.7,1.3h-0.9l1.9-3.1l-1.8-3
		h0.9l0.8,1.4c0.2,0.4,0.4,0.7,0.6,1l0,0c0.2-0.4,0.3-0.6,0.5-1l0.8-1.4h0.9l-1.8,3l1.9,3.1H174.6z"/>
	<path id="XMLID_122_" d="M182.6,420.8c-0.3,0.1-0.9,0.3-1.6,0.3c-1.7,0-3-1.1-3-3.1c0-1.9,1.3-3.2,3.2-3.2c0.8,0,1.2,0.2,1.4,0.3
		l-0.2,0.6c-0.3-0.1-0.7-0.3-1.2-0.3c-1.4,0-2.4,0.9-2.4,2.5c0,1.5,0.9,2.4,2.3,2.4c0.5,0,1-0.1,1.3-0.3L182.6,420.8z"/>
	<path id="XMLID_124_" d="M188.6,417.9c0,2.1-1.3,3.2-2.8,3.2c-1.6,0-2.7-1.2-2.7-3.1s1.2-3.2,2.8-3.2
		C187.5,414.8,188.6,416.1,188.6,417.9z M183.9,418c0,1.3,0.7,2.5,1.9,2.5c1.2,0,1.9-1.1,1.9-2.5c0-1.2-0.6-2.5-1.9-2.5
		S183.9,416.7,183.9,418z"/>
	<path id="XMLID_127_" d="M189.6,421v-6.1h0.9l1.9,3.1c0.5,0.7,0.8,1.4,1.1,2l0,0c-0.1-0.8-0.1-1.5-0.1-2.5V415h0.7v6.1h-0.8
		l-1.9-3.1c-0.4-0.7-0.8-1.4-1.1-2l0,0c0,0.8,0.1,1.5,0.1,2.5v2.6h-0.8V421z"/>
	<path id="XMLID_147_" d="M196.7,415.6h-1.8v-0.7h4.5v0.7h-1.9v5.4h-0.8L196.7,415.6L196.7,415.6z"/>
	<path id="XMLID_149_" d="M200.3,419.1l-0.6,1.9h-0.8l2.1-6.1h0.9l2.1,6.1h-0.8l-0.6-1.9H200.3z M202.3,418.5l-0.6-1.7
		c-0.1-0.4-0.2-0.8-0.3-1.1l0,0c-0.1,0.4-0.2,0.7-0.3,1.1l-0.6,1.8h1.8V418.5z"/>
	<path id="XMLID_152_" d="M205.6,414.9v6.1h-0.8v-6.1H205.6z"/>
	<path id="XMLID_154_" d="M207,421v-6.1h0.9l1.9,3.1c0.5,0.7,0.8,1.4,1.1,2l0,0c-0.1-0.8-0.1-1.5-0.1-2.5V415h0.7v6.1h-0.8l-1.9-3.1
		c-0.4-0.7-0.8-1.4-1.1-2l0,0c0,0.8,0.1,1.5,0.1,2.5v2.6H207V421z"/>
	<path id="XMLID_156_" d="M216,418.2h-2.4v2.2h2.6v0.7h-3.4V415h3.3v0.7h-2.5v1.8h2.4V418.2z"/>
	<path id="XMLID_158_" d="M217.3,415c0.4-0.1,1-0.1,1.5-0.1c0.8,0,1.4,0.2,1.8,0.5c0.3,0.3,0.5,0.7,0.5,1.2c0,0.8-0.5,1.3-1.1,1.5
		l0,0c0.5,0.2,0.7,0.6,0.9,1.2c0.2,0.8,0.3,1.4,0.5,1.7h-0.8c-0.1-0.2-0.2-0.7-0.4-1.4c-0.2-0.8-0.5-1.2-1.2-1.2h-0.7v2.6h-0.8v-6
		H217.3z M218.1,417.8h0.8c0.8,0,1.4-0.5,1.4-1.2c0-0.8-0.6-1.1-1.4-1.1c-0.4,0-0.6,0-0.8,0.1V417.8z"/>
	<path id="XMLID_161_" d="M228.3,420.8c-0.3,0.1-0.9,0.3-1.6,0.3c-1.7,0-3-1.1-3-3.1c0-1.9,1.3-3.2,3.2-3.2c0.8,0,1.2,0.2,1.4,0.3
		l-0.2,0.6c-0.3-0.1-0.7-0.3-1.2-0.3c-1.4,0-2.4,0.9-2.4,2.5c0,1.5,0.9,2.4,2.3,2.4c0.5,0,1-0.1,1.3-0.3L228.3,420.8z"/>
	<path id="XMLID_163_" d="M229.3,414.9h0.8v5.4h2.6v0.7h-3.4V414.9z"/>
	<path id="XMLID_165_" d="M234,414.9v3.6c0,1.4,0.6,1.9,1.4,1.9c0.9,0,1.5-0.6,1.5-1.9v-3.6h0.8v3.6c0,1.9-1,2.6-2.3,2.6
		c-1.2,0-2.2-0.7-2.2-2.6v-3.6H234z"/>
	<path id="XMLID_167_" d="M238.9,420c0.4,0.2,0.9,0.4,1.4,0.4c0.8,0,1.3-0.4,1.3-1s-0.3-0.9-1.1-1.2c-1-0.4-1.6-0.9-1.6-1.7
		c0-0.9,0.8-1.6,2-1.6c0.6,0,1.1,0.1,1.3,0.3l-0.2,0.6c-0.2-0.1-0.6-0.3-1.2-0.3c-0.8,0-1.1,0.5-1.1,0.9c0,0.6,0.4,0.8,1.2,1.2
		c1,0.4,1.5,0.9,1.5,1.8c0,0.9-0.7,1.7-2.1,1.7c-0.6,0-1.2-0.2-1.5-0.4L238.9,420z"/>
	<path id="XMLID_169_" d="M244.6,415.6h-1.8v-0.7h4.5v0.7h-1.9v5.4h-0.8L244.6,415.6L244.6,415.6z"/>
	<path id="XMLID_171_" d="M251.1,418.2h-2.4v2.2h2.6v0.7H248V415h3.3v0.7h-2.5v1.8h2.4L251.1,418.2L251.1,418.2z"/>
	<path id="XMLID_173_" d="M252.4,415c0.4-0.1,1-0.1,1.5-0.1c0.8,0,1.4,0.2,1.8,0.5c0.3,0.3,0.5,0.7,0.5,1.2c0,0.8-0.5,1.3-1.1,1.5
		l0,0c0.5,0.2,0.7,0.6,0.9,1.2c0.2,0.8,0.3,1.4,0.5,1.7h-0.8c-0.1-0.2-0.2-0.7-0.4-1.4c-0.2-0.8-0.5-1.2-1.2-1.2h-0.7v2.6h-0.8v-6
		H252.4z M253.2,417.8h0.8c0.8,0,1.4-0.5,1.4-1.2c0-0.8-0.6-1.1-1.4-1.1c-0.4,0-0.6,0-0.8,0.1V417.8z"/>
</g>
<rect id="XMLID_9_" x="46.7" y="440.5" class="st1" width="29.3" height="27"/>
<rect id="XMLID_177_" x="88.1" y="440.5" class="st1" width="29.3" height="27"/>
<rect id="XMLID_178_" x="129.4" y="440.5" class="st1" width="29.3" height="27"/>
<rect id="XMLID_179_" x="170.8" y="440.5" class="st1" width="29.3" height="27"/>
<rect id="XMLID_180_" x="212.1" y="440.5" class="st1" width="29.3" height="27"/>
<rect id="XMLID_181_" x="253.5" y="440.5" class="st1" width="29.3" height="27"/>
<rect id="XMLID_182_" x="294.8" y="440.5" class="st1" width="29.3" height="27"/>
<rect id="XMLID_183_" x="336.2" y="440.5" class="st1" width="29.3" height="27"/>
<rect id="XMLID_196_" x="68.5" y="449" class="st1" width="275.7" height="10"/>
<g id="XMLID_198_">
	<path id="XMLID_199_" d="M153.3,456.8c-0.3,0.1-0.9,0.3-1.6,0.3c-1.7,0-3-1.1-3-3.1c0-1.9,1.3-3.2,3.2-3.2c0.8,0,1.2,0.2,1.4,0.3
		l-0.2,0.6c-0.3-0.1-0.7-0.3-1.2-0.3c-1.4,0-2.4,0.9-2.4,2.5c0,1.5,0.9,2.4,2.3,2.4c0.5,0,1-0.1,1.3-0.3L153.3,456.8z"/>
	<path id="XMLID_201_" d="M154.3,450.9h0.8v5.4h2.6v0.7h-3.4L154.3,450.9L154.3,450.9z"/>
	<path id="XMLID_203_" d="M159,450.9v3.6c0,1.4,0.6,1.9,1.4,1.9c0.9,0,1.5-0.6,1.5-1.9v-3.6h0.8v3.5c0,1.9-1,2.6-2.3,2.6
		c-1.2,0-2.2-0.7-2.2-2.6v-3.6h0.8V450.9z"/>
	<path id="XMLID_205_" d="M163.9,456c0.4,0.2,0.9,0.4,1.4,0.4c0.8,0,1.3-0.4,1.3-1s-0.3-0.9-1.1-1.2c-1-0.4-1.6-0.9-1.6-1.7
		c0-0.9,0.8-1.6,2-1.6c0.6,0,1.1,0.1,1.3,0.3l-0.2,0.6c-0.2-0.1-0.6-0.3-1.2-0.3c-0.8,0-1.1,0.5-1.1,0.9c0,0.6,0.4,0.8,1.2,1.2
		c1,0.4,1.5,0.9,1.5,1.8s-0.7,1.7-2.1,1.7c-0.6,0-1.2-0.2-1.5-0.4L163.9,456z"/>
	<path id="XMLID_207_" d="M169.6,451.6h-1.8v-0.7h4.5v0.7h-1.9v5.4h-0.8V451.6z"/>
	<path id="XMLID_209_" d="M176.1,454.2h-2.4v2.2h2.6v0.7H173V451h3.3v0.7h-2.5v1.9h2.4L176.1,454.2L176.1,454.2z"/>
	<path id="XMLID_211_" d="M177.4,451c0.4-0.1,1-0.1,1.5-0.1c0.8,0,1.4,0.2,1.8,0.5c0.3,0.3,0.5,0.7,0.5,1.2c0,0.8-0.5,1.3-1.1,1.5
		l0,0c0.5,0.2,0.7,0.6,0.9,1.2c0.2,0.8,0.3,1.4,0.5,1.7h-0.8c-0.1-0.2-0.2-0.7-0.4-1.4c-0.2-0.8-0.5-1.2-1.2-1.2h-0.7v2.6h-0.8v-6
		H177.4z M178.2,453.8h0.8c0.8,0,1.4-0.5,1.4-1.2c0-0.8-0.6-1.1-1.4-1.1c-0.4,0-0.6,0-0.8,0.1V453.8z"/>
	<path id="XMLID_214_" d="M189.3,453.9c0,2.1-1.3,3.2-2.8,3.2c-1.6,0-2.7-1.2-2.7-3.1c0-1.9,1.2-3.2,2.8-3.2
		C188.3,450.8,189.3,452.1,189.3,453.9z M184.6,454c0,1.3,0.7,2.5,1.9,2.5c1.2,0,1.9-1.1,1.9-2.5c0-1.2-0.6-2.5-1.9-2.5
		C185.3,451.5,184.6,452.7,184.6,454z"/>
	<path id="XMLID_217_" d="M190.3,450.9h3.3v0.7h-2.5v2h2.3v0.6h-2.3v2.7h-0.8V450.9z"/>
	<path id="XMLID_219_" d="M196.6,451c0.4-0.1,0.9-0.1,1.5-0.1c0.8,0,1.3,0.2,1.7,0.5c0.3,0.3,0.5,0.7,0.5,1.3c0,0.5-0.2,1-0.5,1.3
		c-0.4,0.4-1.1,0.7-1.9,0.7c-0.2,0-0.5,0-0.6-0.1v2.4h-0.8L196.6,451L196.6,451z M197.4,453.9c0.2,0,0.4,0.1,0.6,0.1
		c0.9,0,1.5-0.5,1.5-1.3c0-0.8-0.6-1.2-1.4-1.2c-0.3,0-0.6,0-0.7,0.1V453.9z"/>
	<path id="XMLID_222_" d="M202.2,450.9v2.5h2.9v-2.5h0.8v6.1h-0.8v-2.8h-2.9v2.8h-0.8v-6.1H202.2z"/>
	<path id="XMLID_224_" d="M208.6,457v-2.6l-1.9-3.5h0.9l0.9,1.7c0.2,0.5,0.4,0.8,0.6,1.3l0,0c0.2-0.4,0.4-0.8,0.6-1.3l0.9-1.7h0.9
		l-2,3.5v2.6H208.6z"/>
	<path id="XMLID_226_" d="M211.9,456c0.4,0.2,0.9,0.4,1.4,0.4c0.8,0,1.3-0.4,1.3-1s-0.3-0.9-1.1-1.2c-1-0.4-1.6-0.9-1.6-1.7
		c0-0.9,0.8-1.6,2-1.6c0.6,0,1.1,0.1,1.3,0.3l-0.2,0.6c-0.2-0.1-0.6-0.3-1.2-0.3c-0.8,0-1.1,0.5-1.1,0.9c0,0.6,0.4,0.8,1.2,1.2
		c1,0.4,1.5,0.9,1.5,1.8s-0.7,1.7-2.1,1.7c-0.6,0-1.2-0.2-1.5-0.4L211.9,456z"/>
	<path id="XMLID_228_" d="M217.2,450.9v6.1h-0.8v-6.1H217.2z"/>
	<path id="XMLID_230_" d="M222.8,456.8c-0.3,0.1-0.9,0.3-1.6,0.3c-1.7,0-3-1.1-3-3.1c0-1.9,1.3-3.2,3.2-3.2c0.8,0,1.2,0.2,1.4,0.3
		l-0.2,0.6c-0.3-0.1-0.7-0.3-1.2-0.3c-1.4,0-2.4,0.9-2.4,2.5c0,1.5,0.9,2.4,2.3,2.4c0.5,0,1-0.1,1.3-0.3L222.8,456.8z"/>
	<path id="XMLID_232_" d="M224.8,455.1l-0.6,1.9h-0.8l2.1-6.1h0.9l2.1,6.1h-0.8l-0.6-1.9H224.8z M226.8,454.5l-0.6-1.7
		c-0.1-0.4-0.2-0.8-0.3-1.1l0,0c-0.1,0.4-0.2,0.7-0.3,1.1l-0.6,1.7H226.8z"/>
	<path id="XMLID_235_" d="M229.3,450.9h0.8v5.4h2.6v0.7h-3.4V450.9z"/>
	<path id="XMLID_237_" d="M240.6,454.3c0-0.8-0.1-1.9-0.1-2.6l0,0c-0.2,0.7-0.5,1.5-0.8,2.3l-1.1,2.9H238l-1-2.9
		c-0.3-0.9-0.5-1.6-0.7-2.4l0,0c0,0.8-0.1,1.8-0.1,2.7l-0.2,2.6h-0.7l0.4-6.1h1l1,2.9c0.3,0.7,0.5,1.4,0.6,2l0,0
		c0.2-0.6,0.4-1.3,0.6-2l1.1-2.9h1l0.4,6.1h-0.8L240.6,454.3z"/>
	<path id="XMLID_239_" d="M243.6,455.1L243,457h-0.8l2.1-6.1h0.9l2.1,6.1h-0.8l-0.6-1.9H243.6z M245.6,454.5l-0.6-1.7
		c-0.1-0.4-0.2-0.8-0.3-1.1l0,0c-0.1,0.4-0.2,0.7-0.3,1.1l-0.6,1.8h1.8V454.5z"/>
	<path id="XMLID_242_" d="M252.2,456.8c-0.3,0.1-0.9,0.3-1.6,0.3c-1.7,0-3-1.1-3-3.1c0-1.9,1.3-3.2,3.2-3.2c0.8,0,1.2,0.2,1.4,0.3
		l-0.2,0.6c-0.3-0.1-0.7-0.3-1.2-0.3c-1.4,0-2.4,0.9-2.4,2.5c0,1.5,0.9,2.4,2.3,2.4c0.5,0,1-0.1,1.3-0.3L252.2,456.8z"/>
	<path id="XMLID_244_" d="M254,450.9v2.5h2.9v-2.5h0.8v6.1h-0.8v-2.8H254v2.8h-0.8v-6.1H254z"/>
	<path id="XMLID_246_" d="M259.9,450.9v6.1h-0.8v-6.1H259.9z"/>
	<path id="XMLID_248_" d="M261.2,457v-6.1h0.9l1.9,3.1c0.5,0.7,0.8,1.4,1.1,2l0,0c-0.1-0.8-0.1-1.5-0.1-2.5V451h0.7v6.1H265
		l-1.9-3.1c-0.4-0.7-0.8-1.4-1.1-2l0,0c0,0.8,0.1,1.5,0.1,2.5v2.6h-0.9V457z"/>
	<path id="XMLID_250_" d="M270.3,454.2h-2.4v2.2h2.6v0.7h-3.4V451h3.3v0.7h-2.5v1.9h2.4V454.2z"/>
	<path id="XMLID_252_" d="M271.5,456c0.4,0.2,0.9,0.4,1.4,0.4c0.8,0,1.3-0.4,1.3-1s-0.3-0.9-1.1-1.2c-1-0.4-1.6-0.9-1.6-1.7
		c0-0.9,0.8-1.6,2-1.6c0.6,0,1.1,0.1,1.3,0.3l-0.2,0.6c-0.2-0.1-0.6-0.3-1.2-0.3c-0.8,0-1.1,0.5-1.1,0.9c0,0.6,0.4,0.8,1.2,1.2
		c1,0.4,1.5,0.9,1.5,1.8s-0.7,1.7-2.1,1.7c-0.6,0-1.2-0.2-1.5-0.4L271.5,456z"/>
</g>
<g id="XMLID_57_">
	<path id="XMLID_58_" class="st9" d="M-16.7,460v-10h1.9v10H-16.7z"/>
	<path id="XMLID_60_" class="st9" d="M-11.4,455l-1.7-0.3c0.2-0.7,0.5-1.2,1-1.6c0.5-0.4,1.2-0.5,2.1-0.5s1.5,0.1,1.9,0.3
		s0.7,0.5,0.9,0.8c0.2,0.3,0.3,0.9,0.3,1.7v2.2c0,0.6,0,1.1,0.1,1.4s0.2,0.6,0.3,1h-1.9c-0.1-0.1-0.1-0.3-0.2-0.6
		c0-0.1-0.1-0.2-0.1-0.2c-0.3,0.3-0.7,0.6-1.1,0.7c-0.4,0.1-0.8,0.2-1.2,0.2c-0.7,0-1.3-0.2-1.8-0.6s-0.6-0.9-0.6-1.5
		c0-0.4,0.1-0.8,0.3-1.1s0.5-0.6,0.8-0.7c0.3-0.1,0.9-0.3,1.5-0.4c0.9-0.2,1.5-0.3,1.9-0.5v-0.2c0-0.4-0.1-0.6-0.3-0.8
		c-0.2-0.2-0.5-0.2-1-0.2c-0.3,0-0.6,0.1-0.8,0.2C-11.2,454.4-11.2,454.6-11.4,455z M-8.8,456.5c-0.2,0.1-0.6,0.2-1.2,0.3
		c-0.6,0.1-0.9,0.2-1,0.3c-0.3,0.2-0.4,0.4-0.4,0.7c0,0.3,0.1,0.5,0.3,0.7s0.5,0.3,0.8,0.3s0.7-0.1,1-0.3c0.2-0.2,0.4-0.4,0.5-0.6
		c0.1-0.2,0.1-0.5,0.1-0.9v-0.5H-8.8z"/>
	<path id="XMLID_63_" class="st9" d="M-5.9,452.7h2l1.7,5.2l1.7-5.2h2l-2.6,7l-0.5,1.3c-0.2,0.4-0.3,0.7-0.5,1s-0.3,0.4-0.5,0.5
		s-0.4,0.2-0.7,0.3c-0.3,0.1-0.6,0.1-1,0.1s-0.7,0-1.1-0.1l-0.2-1.5c0.3,0.1,0.6,0.1,0.8,0.1c0.4,0,0.8-0.1,1-0.4s0.4-0.6,0.5-1
		L-5.9,452.7z"/>
	<path id="XMLID_65_" class="st9" d="M7,457.7l1.9,0.3c-0.2,0.7-0.6,1.2-1.2,1.6s-1.2,0.6-2,0.6c-1.3,0-2.2-0.4-2.8-1.2
		c-0.5-0.7-0.7-1.5-0.7-2.5c0-1.2,0.3-2.1,0.9-2.8s1.4-1,2.4-1c1.1,0,1.9,0.4,2.6,1.1s0.9,1.8,0.9,3.3H4.2c0,0.6,0.2,1,0.5,1.3
		s0.7,0.5,1.1,0.5c0.3,0,0.6-0.1,0.8-0.2C6.8,458.6,6.9,458.1,7,457.7z M7.1,455.7c0-0.6-0.2-1-0.4-1.3s-0.6-0.4-1-0.4
		s-0.8,0.2-1,0.5s-0.4,0.7-0.4,1.2H7.1z"/>
	<path id="XMLID_68_" class="st9" d="M12.4,460h-1.9v-7.3h1.8v1c0.3-0.5,0.6-0.8,0.8-1c0.2-0.2,0.5-0.2,0.8-0.2
		c0.4,0,0.9,0.1,1.3,0.4l-0.6,1.7c-0.3-0.2-0.6-0.3-0.9-0.3s-0.5,0.1-0.7,0.2c-0.2,0.1-0.3,0.4-0.4,0.8s-0.2,1.2-0.2,2.4L12.4,460
		L12.4,460z"/>
	<path id="XMLID_70_" class="st9" d="M23.3,460h-2.9v-10.9c-1.1,1-2.3,1.7-3.7,2.2v-2.6c0.8-0.2,1.6-0.7,2.5-1.4
		c0.9-0.7,1.5-1.5,1.8-2.4h2.3C23.3,444.9,23.3,460,23.3,460z"/>
</g>
<g id="XMLID_42_">
	<path id="XMLID_43_" class="st9" d="M-16.7,427.2v-10h1.9v10H-16.7z"/>
	<path id="XMLID_45_" class="st9" d="M-11.4,422.1l-1.7-0.3c0.2-0.7,0.5-1.2,1-1.6c0.5-0.4,1.2-0.5,2.1-0.5s1.5,0.1,1.9,0.3
		s0.7,0.5,0.9,0.8c0.2,0.3,0.3,0.9,0.3,1.7v2.2c0,0.6,0,1.1,0.1,1.4c0.1,0.3,0.2,0.6,0.3,1h-1.9c-0.1-0.1-0.1-0.3-0.2-0.6
		c0-0.1-0.1-0.2-0.1-0.2c-0.3,0.3-0.7,0.6-1.1,0.7s-0.8,0.2-1.2,0.2c-0.7,0-1.3-0.2-1.8-0.6s-0.6-0.9-0.6-1.5c0-0.4,0.1-0.8,0.3-1.1
		s0.5-0.6,0.8-0.7c0.3-0.1,0.9-0.3,1.5-0.4c0.9-0.2,1.5-0.3,1.9-0.5v-0.2c0-0.4-0.1-0.6-0.3-0.8c-0.2-0.2-0.5-0.2-1-0.2
		c-0.3,0-0.6,0.1-0.8,0.2S-11.2,421.8-11.4,422.1z M-8.8,423.7c-0.2,0.1-0.6,0.2-1.2,0.3s-0.9,0.2-1,0.3c-0.3,0.2-0.4,0.4-0.4,0.7
		s0.1,0.5,0.3,0.7c0.2,0.2,0.5,0.3,0.8,0.3s0.7-0.1,1-0.3c0.2-0.2,0.4-0.4,0.5-0.6c0.1-0.2,0.1-0.5,0.1-0.9v-0.5H-8.8z"/>
	<path id="XMLID_48_" class="st9" d="M-5.9,419.9h2l1.7,5.2l1.7-5.2h2l-2.6,7l-0.5,1.3c-0.2,0.4-0.3,0.7-0.5,1
		c-0.2,0.3-0.3,0.4-0.5,0.5c-0.2,0.1-0.4,0.2-0.7,0.3s-0.6,0.1-1,0.1s-0.7,0-1.1-0.1l-0.2-1.5c0.3,0.1,0.6,0.1,0.8,0.1
		c0.4,0,0.8-0.1,1-0.4c0.2-0.3,0.4-0.6,0.5-1L-5.9,419.9z"/>
	<path id="XMLID_50_" class="st9" d="M7,424.8l1.9,0.3c-0.2,0.7-0.6,1.2-1.2,1.6c-0.6,0.4-1.2,0.6-2,0.6c-1.3,0-2.2-0.4-2.8-1.2
		c-0.5-0.7-0.7-1.5-0.7-2.5c0-1.2,0.3-2.1,0.9-2.8c0.6-0.7,1.4-1,2.4-1c1.1,0,1.9,0.4,2.6,1.1c0.7,0.7,0.9,1.8,0.9,3.3H4.2
		c0,0.6,0.2,1,0.5,1.3c0.3,0.3,0.7,0.5,1.1,0.5c0.3,0,0.6-0.1,0.8-0.2S6.9,425.2,7,424.8z M7.1,422.9c0-0.6-0.2-1-0.4-1.3
		c-0.2-0.3-0.6-0.4-1-0.4s-0.8,0.2-1,0.5c-0.2,0.3-0.4,0.7-0.4,1.2C4.3,422.9,7.1,422.9,7.1,422.9z"/>
	<path id="XMLID_53_" class="st9" d="M12.4,427.2h-1.9v-7.3h1.8v1c0.3-0.5,0.6-0.8,0.8-1s0.5-0.2,0.8-0.2c0.4,0,0.9,0.1,1.3,0.4
		l-0.6,1.7c-0.3-0.2-0.6-0.3-0.9-0.3s-0.5,0.1-0.7,0.2s-0.3,0.4-0.4,0.8c-0.1,0.4-0.2,1.2-0.2,2.4L12.4,427.2L12.4,427.2z"/>
	<path id="XMLID_55_" class="st9" d="M25.6,424.5v2.7H15.5c0.1-1,0.4-2,1-2.9c0.6-0.9,1.6-2.1,3.2-3.6c1.3-1.2,2.1-2,2.4-2.5
		c0.4-0.6,0.6-1.2,0.6-1.8s-0.2-1.1-0.5-1.5c-0.3-0.3-0.8-0.5-1.4-0.5s-1.1,0.2-1.4,0.5s-0.6,1-0.6,1.8l-2.9-0.2
		c0.2-1.6,0.7-2.7,1.6-3.4c0.9-0.7,2-1,3.4-1c1.5,0,2.6,0.4,3.5,1.2s1.3,1.8,1.3,3c0,0.7-0.1,1.3-0.4,1.9c-0.2,0.6-0.6,1.3-1.2,1.9
		c-0.3,0.4-1,1.1-1.9,1.9s-1.5,1.4-1.7,1.7c-0.2,0.3-0.4,0.5-0.6,0.8H25.6z"/>
</g>
<g id="XMLID_21_">
	<path id="XMLID_22_" class="st9" d="M-16.7,397.3v-10h1.9v10H-16.7z"/>
	<path id="XMLID_24_" class="st9" d="M-11.4,392.2l-1.7-0.3c0.2-0.7,0.5-1.2,1-1.6c0.5-0.4,1.2-0.5,2.1-0.5s1.5,0.1,1.9,0.3
		c0.4,0.2,0.7,0.5,0.9,0.8c0.2,0.3,0.3,0.9,0.3,1.7v2.2c0,0.6,0,1.1,0.1,1.4c0.1,0.3,0.2,0.6,0.3,1h-1.9c-0.1-0.1-0.1-0.3-0.2-0.6
		c0-0.1-0.1-0.2-0.1-0.2c-0.3,0.3-0.7,0.6-1.1,0.7s-0.8,0.2-1.2,0.2c-0.7,0-1.3-0.2-1.8-0.6c-0.5-0.4-0.6-0.9-0.6-1.5
		c0-0.4,0.1-0.8,0.3-1.1c0.2-0.3,0.5-0.6,0.8-0.7s0.9-0.3,1.5-0.4c0.9-0.2,1.5-0.3,1.9-0.5v-0.2c0-0.4-0.1-0.6-0.3-0.8
		s-0.5-0.2-1-0.2c-0.3,0-0.6,0.1-0.8,0.2S-11.2,391.9-11.4,392.2z M-8.8,393.8c-0.2,0.1-0.6,0.2-1.2,0.3s-0.9,0.2-1,0.3
		c-0.3,0.2-0.4,0.4-0.4,0.7c0,0.3,0.1,0.5,0.3,0.7c0.2,0.2,0.5,0.3,0.8,0.3s0.7-0.1,1-0.3c0.2-0.2,0.4-0.4,0.5-0.6
		c0.1-0.2,0.1-0.5,0.1-0.9v-0.5H-8.8z"/>
	<path id="XMLID_33_" class="st9" d="M-5.9,390h2l1.7,5.2l1.7-5.2h2l-2.6,7l-0.5,1.3c-0.2,0.4-0.3,0.7-0.5,1
		c-0.2,0.3-0.3,0.4-0.5,0.5c-0.2,0.1-0.4,0.2-0.7,0.3s-0.6,0.1-1,0.1s-0.7,0-1.1-0.1l-0.2-1.5c0.3,0.1,0.6,0.1,0.8,0.1
		c0.4,0,0.8-0.1,1-0.4c0.2-0.3,0.4-0.6,0.5-1L-5.9,390z"/>
	<path id="XMLID_35_" class="st9" d="M7,394.9l1.9,0.3c-0.2,0.7-0.6,1.2-1.2,1.6c-0.6,0.4-1.2,0.6-2,0.6c-1.3,0-2.2-0.4-2.8-1.2
		c-0.5-0.7-0.7-1.5-0.7-2.5c0-1.2,0.3-2.1,0.9-2.8c0.6-0.7,1.4-1,2.4-1c1.1,0,1.9,0.4,2.6,1.1s0.9,1.8,0.9,3.3H4.2
		c0,0.6,0.2,1,0.5,1.3s0.7,0.5,1.1,0.5c0.3,0,0.6-0.1,0.8-0.2C6.8,395.8,6.9,395.3,7,394.9z M7.1,393c0-0.6-0.2-1-0.4-1.3
		c-0.2-0.3-0.6-0.4-1-0.4s-0.8,0.2-1,0.5c-0.2,0.3-0.4,0.7-0.4,1.2C4.3,393,7.1,393,7.1,393z"/>
	<path id="XMLID_38_" class="st9" d="M12.4,397.3h-1.9V390h1.8v1c0.3-0.5,0.6-0.8,0.8-1s0.5-0.2,0.8-0.2c0.4,0,0.9,0.1,1.3,0.4
		l-0.6,1.7c-0.3-0.2-0.6-0.4-0.9-0.4s-0.5,0.1-0.7,0.2c-0.2,0.1-0.3,0.4-0.4,0.8s-0.2,1.2-0.2,2.4V397.3z"/>
	<path id="XMLID_40_" class="st9" d="M15.8,393.3l2.8-0.3c0.1,0.7,0.3,1.3,0.7,1.6c0.4,0.3,0.9,0.6,1.4,0.6c0.6,0,1.1-0.2,1.5-0.7
		s0.6-1.1,0.6-1.8c0-0.7-0.2-1.3-0.6-1.7s-0.9-0.6-1.4-0.6c-0.4,0-0.8,0.1-1.3,0.2l0.3-2.3c0.8,0,1.4-0.1,1.8-0.5
		c0.4-0.4,0.6-0.8,0.6-1.4c0-0.5-0.2-0.9-0.5-1.2c-0.3-0.3-0.6-0.7-1.1-0.7s-0.9,0.2-1.3,0.5s-0.6,0.8-0.6,1.5l-2.7-0.4
		c0.2-0.9,0.5-1.6,0.8-2.2c0.4-0.5,0.9-1,1.6-1.3c0.7-0.3,1.4-0.5,2.2-0.5c1.4,0,2.5,0.5,3.4,1.4c0.7,0.7,1.1,1.6,1.1,2.5
		c0,1.3-0.7,2.4-2.2,3.2c0.9,0.2,1.5,0.6,2.1,1.2c0.5,0.6,0.8,1.4,0.8,2.3c0,1.3-0.5,2.4-1.4,3.4s-2.2,1.4-3.7,1.4
		c-1.4,0-2.5-0.4-3.4-1.2C16.5,395.5,15.9,394.5,15.8,393.3z"/>
</g>
<line id="XMLID_257_" class="st10" x1="-37.3" y1="402" x2="25.5" y2="402"/>
<line id="XMLID_256_" class="st10" x1="-37.3" y1="437" x2="25.5" y2="437"/>
<g>
	<path d="M52.3,372h2.9v0.6H53v1.8h2v0.6h-2v2.4h-0.7V372z"/>
	<path d="M56.9,372v5.4h-0.7V372H56.9z"/>
	<path d="M58.1,372.1c0.3-0.1,0.8-0.1,1.3-0.1c0.7,0,1.2,0.2,1.5,0.4c0.3,0.3,0.5,0.6,0.5,1.1c0,0.5-0.1,0.9-0.4,1.2
		c-0.4,0.4-1,0.6-1.6,0.6c-0.2,0-0.4,0-0.6,0v2.2h-0.7V372.1z M58.8,374.7c0.2,0,0.3,0.1,0.6,0.1c0.8,0,1.4-0.4,1.4-1.2
		c0-0.7-0.5-1.1-1.3-1.1c-0.3,0-0.5,0-0.7,0.1V374.7z"/>
</g>
<g>
	<path d="M107.4,373.1l-0.6,1.7h-0.7l1.8-5.4h0.8l1.8,5.4h-0.7l-0.6-1.7H107.4z M109.2,372.6l-0.5-1.6c-0.1-0.4-0.2-0.7-0.3-1h0
		c-0.1,0.3-0.2,0.6-0.3,1l-0.5,1.6H109.2z"/>
	<path d="M111.4,372.1c0-0.5,0-0.8,0-1.2h0.6l0,0.8h0c0.2-0.5,0.6-0.8,1.1-0.8c0.1,0,0.1,0,0.2,0v0.7c-0.1,0-0.1,0-0.2,0
		c-0.5,0-0.8,0.4-0.9,0.9c0,0.1,0,0.2,0,0.3v2.1h-0.7V372.1z"/>
	<path d="M114,372.1c0-0.5,0-0.8,0-1.2h0.6l0,0.8h0c0.2-0.5,0.6-0.8,1.1-0.8c0.1,0,0.1,0,0.2,0v0.7c-0.1,0-0.1,0-0.2,0
		c-0.5,0-0.8,0.4-0.9,0.9c0,0.1,0,0.2,0,0.3v2.1H114V372.1z"/>
	<path d="M118.7,374.8l-0.1-0.5h0c-0.2,0.3-0.6,0.6-1.2,0.6c-0.8,0-1.2-0.6-1.2-1.1c0-0.9,0.8-1.4,2.3-1.4v-0.1
		c0-0.3-0.1-0.9-0.9-0.9c-0.4,0-0.7,0.1-1,0.3l-0.2-0.5c0.3-0.2,0.8-0.3,1.3-0.3c1.2,0,1.5,0.8,1.5,1.6v1.4c0,0.3,0,0.7,0.1,0.9
		H118.7z M118.6,372.8c-0.8,0-1.6,0.1-1.6,0.9c0,0.5,0.3,0.7,0.7,0.7c0.5,0,0.8-0.3,0.9-0.6c0-0.1,0-0.2,0-0.2V372.8z"/>
	<path d="M120.6,370.9l0.8,2.3c0.1,0.3,0.2,0.6,0.2,0.8h0c0.1-0.2,0.2-0.5,0.2-0.8l0.8-2.3h0.7l-1.1,2.8c-0.5,1.3-0.8,2-1.3,2.4
		c-0.3,0.3-0.7,0.4-0.9,0.5l-0.2-0.6c0.2-0.1,0.4-0.2,0.6-0.3c0.2-0.2,0.4-0.4,0.6-0.8c0-0.1,0.1-0.1,0.1-0.2c0,0,0-0.1,0-0.2
		l-1.4-3.6H120.6z"/>
	<path d="M129.3,372.8c0,1.4-1,2.1-1.9,2.1c-1,0-1.9-0.8-1.9-2c0-1.3,0.8-2.1,1.9-2.1C128.6,370.9,129.3,371.7,129.3,372.8z
		 M126.3,372.9c0,0.8,0.5,1.5,1.2,1.5c0.7,0,1.2-0.6,1.2-1.5c0-0.7-0.3-1.5-1.2-1.5C126.6,371.4,126.3,372.1,126.3,372.9z"/>
	<path d="M130.3,374.8v-3.3h-0.5v-0.5h0.5v-0.2c0-0.5,0.1-1,0.4-1.4c0.3-0.3,0.6-0.4,0.9-0.4c0.2,0,0.5,0.1,0.6,0.1l-0.1,0.5
		c-0.1,0-0.2-0.1-0.4-0.1c-0.6,0-0.8,0.5-0.8,1.1v0.2h0.9v0.5H131v3.3H130.3z"/>
	<path d="M134.3,369.5c0.4-0.1,0.9-0.1,1.3-0.1c0.7,0,1.2,0.1,1.6,0.4c0.3,0.2,0.4,0.6,0.4,1c0,0.7-0.4,1.2-1,1.4v0
		c0.4,0.1,0.7,0.5,0.8,1.1c0.2,0.8,0.3,1.3,0.4,1.5h-0.7c-0.1-0.2-0.2-0.6-0.4-1.3c-0.2-0.7-0.4-1-1.1-1H135v2.3h-0.7V369.5z
		 M135,371.9h0.7c0.7,0,1.2-0.4,1.2-1c0-0.7-0.5-1-1.2-1c-0.3,0-0.6,0-0.7,0.1V371.9z"/>
	<path d="M138.6,369.5c0.3-0.1,0.8-0.1,1.3-0.1c0.7,0,1.2,0.2,1.5,0.4c0.3,0.3,0.5,0.6,0.5,1.1c0,0.5-0.1,0.9-0.4,1.2
		c-0.4,0.4-1,0.6-1.6,0.6c-0.2,0-0.4,0-0.6,0v2.2h-0.7V369.5z M139.3,372.1c0.2,0,0.3,0.1,0.6,0.1c0.8,0,1.4-0.4,1.4-1.2
		c0-0.7-0.5-1.1-1.3-1.1c-0.3,0-0.5,0-0.7,0.1V372.1z"/>
	<path d="M142.8,374c0.3,0.2,0.8,0.4,1.2,0.4c0.7,0,1.1-0.4,1.1-0.9c0-0.5-0.3-0.8-1-1.1c-0.9-0.3-1.4-0.8-1.4-1.5
		c0-0.8,0.7-1.5,1.7-1.5c0.6,0,1,0.1,1.2,0.3l-0.2,0.6c-0.2-0.1-0.5-0.3-1-0.3c-0.7,0-1,0.4-1,0.8c0,0.5,0.3,0.8,1.1,1
		c0.9,0.4,1.4,0.8,1.4,1.6c0,0.8-0.6,1.6-1.9,1.6c-0.5,0-1.1-0.2-1.4-0.3L142.8,374z"/>
</g>
</svg>
