<?xml version="1.0" encoding="utf-8"?>
<!-- Generator: Adobe Illustrator 19.0.0, SVG Export Plug-In . SVG Version: 6.00 Build 0)  -->
<svg version="1.1" id="Layer_1" xmlns="http://www.w3.org/2000/svg" xmlns:xlink="http://www.w3.org/1999/xlink" x="0px" y="0px"
	 viewBox="0 0 457.3 126" style="enable-background:new 0 0 457.3 126;" xml:space="preserve">
<style type="text/css">
	.st0{fill:#231F20;}
	.st1{fill:#F9C989;}
	
		.st2{fill:none;stroke:#231F20;stroke-width:0.6;stroke-miterlimit:10;stroke-dasharray:1.0054,1.0054,1.0054,1.0054,1.0054,1.0054;}
	.st3{fill:none;stroke:#FFFFFF;stroke-width:0.6;stroke-miterlimit:10;}
	.st4{fill:#FFFFFF;stroke:#231F20;stroke-width:0.6;stroke-miterlimit:10;}
	.st5{opacity:0.3;fill:#EB008B;stroke:#231F20;stroke-width:0.6;stroke-miterlimit:10;}
	.st6{fill:#FFFFFF;}
	.st7{opacity:0.3;fill:#EE4036;stroke:#231F20;stroke-width:0.6;stroke-miterlimit:10;}
</style>
<rect id="XMLID_111_" class="st0" width="457.3" height="126"/>
<g id="XMLID_3_">
	<path id="XMLID_31_" class="st1" d="M263.2,83.8H137.8c-4,0-7.2-3.2-7.2-7.2V28.5c0-4,3.2-7.2,7.2-7.2h125.4c4,0,7.2,3.2,7.2,7.2
		v48.1C270.4,80.5,267.2,83.8,263.2,83.8z"/>
	<path id="XMLID_30_" class="st2" d="M263.2,83.8H137.8c-4,0-7.2-3.2-7.2-7.2V28.5c0-4,3.2-7.2,7.2-7.2h125.4c4,0,7.2,3.2,7.2,7.2
		v48.1C270.4,80.5,267.2,83.8,263.2,83.8z"/>
</g>
<line id="XMLID_2_" class="st3" x1="84.3" y1="52.9" x2="118.7" y2="52.9"/>
<circle id="XMLID_1_" class="st4" cx="132.3" cy="52.9" r="13.6"/>
<g id="XMLID_10_">
	<g id="XMLID_5_">
		<rect id="XMLID_7_" x="166.8" y="33.8" class="st5" width="80.9" height="30.6"/>
		<rect id="XMLID_6_" x="164.3" y="36.9" class="st5" width="80.9" height="30.6"/>
		<rect id="XMLID_4_" x="161.7" y="40" class="st5" width="80.9" height="30.6"/>
	</g>
	<g id="XMLID_405_">
		<path id="XMLID_406_" class="st0" d="M175.9,53.7l-0.5,1.5h-0.6l1.6-4.9h0.8l1.7,4.9h-0.7l-0.5-1.5H175.9z M177.4,53.2l-0.5-1.4
			c-0.1-0.3-0.2-0.6-0.3-0.9h0c-0.1,0.3-0.2,0.6-0.2,0.9l-0.5,1.4H177.4z"/>
		<path id="XMLID_409_" class="st0" d="M179.4,52.9c0-0.4,0-0.8,0-1.1h0.6l0,0.7h0c0.2-0.5,0.5-0.8,1-0.8c0.1,0,0.1,0,0.2,0v0.6
			c-0.1,0-0.1,0-0.2,0c-0.4,0-0.8,0.3-0.8,0.8c0,0.1,0,0.2,0,0.3v1.9h-0.6V52.9z"/>
		<path id="XMLID_411_" class="st0" d="M181.8,52.9c0-0.4,0-0.8,0-1.1h0.6l0,0.7h0c0.2-0.5,0.5-0.8,1-0.8c0.1,0,0.1,0,0.2,0v0.6
			c-0.1,0-0.1,0-0.2,0c-0.4,0-0.8,0.3-0.9,0.8c0,0.1,0,0.2,0,0.3v1.9h-0.6V52.9z"/>
		<path id="XMLID_413_" class="st0" d="M186.1,55.3l-0.1-0.4h0c-0.2,0.3-0.6,0.5-1.1,0.5c-0.7,0-1.1-0.5-1.1-1
			c0-0.8,0.7-1.3,2.1-1.3V53c0-0.3-0.1-0.8-0.8-0.8c-0.3,0-0.7,0.1-0.9,0.3l-0.1-0.4c0.3-0.2,0.7-0.3,1.1-0.3c1.1,0,1.3,0.7,1.3,1.4
			v1.3c0,0.3,0,0.6,0.1,0.8H186.1z M186,53.5c-0.7,0-1.5,0.1-1.5,0.8c0,0.4,0.3,0.6,0.6,0.6c0.5,0,0.7-0.3,0.8-0.6
			c0-0.1,0-0.1,0-0.2V53.5z"/>
		<path id="XMLID_416_" class="st0" d="M187.8,51.8l0.8,2.1c0.1,0.2,0.2,0.5,0.2,0.7h0c0.1-0.2,0.1-0.5,0.2-0.7l0.7-2h0.7l-1,2.5
			c-0.5,1.2-0.8,1.8-1.2,2.2c-0.3,0.3-0.6,0.4-0.8,0.4l-0.2-0.5c0.2-0.1,0.4-0.2,0.6-0.3c0.2-0.1,0.4-0.4,0.5-0.7
			c0-0.1,0.1-0.1,0.1-0.2c0,0,0-0.1,0-0.2l-1.3-3.2H187.8z"/>
		<path id="XMLID_418_" class="st0" d="M195.6,53.5c0,1.3-0.9,1.9-1.7,1.9c-0.9,0-1.7-0.7-1.7-1.8c0-1.2,0.8-1.9,1.7-1.9
			C194.9,51.7,195.6,52.4,195.6,53.5z M192.9,53.5c0,0.8,0.4,1.3,1.1,1.3c0.6,0,1.1-0.6,1.1-1.4c0-0.6-0.3-1.3-1-1.3
			S192.9,52.9,192.9,53.5z"/>
		<path id="XMLID_421_" class="st0" d="M196.5,55.3v-3H196v-0.5h0.5v-0.2c0-0.5,0.1-0.9,0.4-1.2c0.2-0.2,0.6-0.3,0.8-0.3
			c0.2,0,0.4,0.1,0.5,0.1l-0.1,0.5c-0.1,0-0.2-0.1-0.4-0.1c-0.5,0-0.7,0.5-0.7,1v0.2h0.8v0.5h-0.8v3H196.5z"/>
		<path id="XMLID_423_" class="st0" d="M200.7,50.4v2h2.3v-2h0.6v4.9H203V53h-2.3v2.3h-0.6v-4.9H200.7z"/>
		<path id="XMLID_425_" class="st0" d="M205.5,53.7l-0.5,1.5h-0.6l1.6-4.9h0.8l1.7,4.9h-0.7l-0.5-1.5H205.5z M207.1,53.2l-0.5-1.4
			c-0.1-0.3-0.2-0.6-0.3-0.9h0c-0.1,0.3-0.2,0.6-0.2,0.9l-0.5,1.4H207.1z"/>
		<path id="XMLID_428_" class="st0" d="M209.2,50.5c0.3-0.1,0.7-0.1,1.2-0.1c0.6,0,1.1,0.1,1.4,0.4c0.3,0.2,0.4,0.6,0.4,1
			c0,0.4-0.1,0.8-0.4,1c-0.3,0.4-0.9,0.5-1.5,0.5c-0.2,0-0.4,0-0.5,0v1.9h-0.6V50.5z M209.8,52.8c0.1,0,0.3,0.1,0.5,0.1
			c0.8,0,1.2-0.4,1.2-1c0-0.6-0.5-1-1.1-1c-0.3,0-0.5,0-0.6,0.1V52.8z"/>
		<path id="XMLID_431_" class="st0" d="M212.9,52.9c0-0.4,0-0.8,0-1.1h0.6l0,0.7h0c0.2-0.5,0.5-0.8,1-0.8c0.1,0,0.1,0,0.2,0v0.6
			c-0.1,0-0.1,0-0.2,0c-0.4,0-0.8,0.3-0.9,0.8c0,0.1,0,0.2,0,0.3v1.9h-0.6V52.9z"/>
		<path id="XMLID_433_" class="st0" d="M218.3,53.5c0,1.3-0.9,1.9-1.7,1.9c-0.9,0-1.7-0.7-1.7-1.8c0-1.2,0.8-1.9,1.7-1.9
			C217.6,51.7,218.3,52.4,218.3,53.5z M215.5,53.5c0,0.8,0.4,1.3,1.1,1.3c0.6,0,1.1-0.6,1.1-1.4c0-0.6-0.3-1.3-1-1.3
			S215.5,52.9,215.5,53.5z"/>
		<path id="XMLID_436_" class="st0" d="M219.3,51.8l0.5,0.7c0.1,0.2,0.2,0.4,0.4,0.6h0c0.1-0.2,0.2-0.4,0.3-0.6l0.5-0.7h0.7
			l-1.2,1.7l1.2,1.8H221l-0.5-0.8c-0.1-0.2-0.3-0.4-0.4-0.6h0c-0.1,0.2-0.2,0.4-0.4,0.6l-0.5,0.8h-0.7l1.2-1.8l-1.2-1.7H219.3z"/>
		<path id="XMLID_438_" class="st0" d="M222.7,51.8l0.8,2.1c0.1,0.2,0.2,0.5,0.2,0.7h0c0.1-0.2,0.1-0.5,0.2-0.7l0.7-2h0.7l-1,2.5
			c-0.5,1.2-0.8,1.8-1.2,2.2c-0.3,0.3-0.6,0.4-0.8,0.4l-0.2-0.5c0.2-0.1,0.4-0.2,0.6-0.3c0.2-0.1,0.4-0.4,0.5-0.7
			c0-0.1,0.1-0.1,0.1-0.2c0,0,0-0.1,0-0.2l-1.3-3.2H222.7z"/>
	</g>
</g>
<g id="XMLID_397_">
	<path id="XMLID_398_" class="st0" d="M128.9,55.2l-1.6-4.9h0.7l0.8,2.4c0.2,0.7,0.4,1.2,0.5,1.8h0c0.1-0.6,0.3-1.2,0.6-1.8l0.8-2.4
		h0.7l-1.7,4.9H128.9z"/>
	<path id="XMLID_400_" class="st0" d="M132.5,50.4v4.9h-0.6v-4.9H132.5z"/>
	<path id="XMLID_402_" class="st0" d="M133.6,50.4c0.3-0.1,0.7-0.1,1.2-0.1c0.6,0,1.1,0.1,1.4,0.4c0.3,0.2,0.4,0.6,0.4,1
		c0,0.4-0.1,0.8-0.4,1c-0.3,0.4-0.9,0.5-1.5,0.5c-0.2,0-0.4,0-0.5,0v1.9h-0.6V50.4z M134.2,52.8c0.1,0,0.3,0.1,0.5,0.1
		c0.8,0,1.2-0.4,1.2-1c0-0.6-0.5-1-1.1-1c-0.3,0-0.5,0-0.6,0.1V52.8z"/>
</g>
<g id="XMLID_327_">
	<path id="XMLID_328_" class="st6" d="M22.9,50.5c-0.2,0.1-0.7,0.2-1.3,0.2c-1.4,0-2.4-0.9-2.4-2.5c0-1.5,1-2.5,2.5-2.5
		c0.6,0,1,0.1,1.2,0.2l-0.2,0.5c-0.2-0.1-0.6-0.2-1-0.2c-1.1,0-1.9,0.7-1.9,2c0,1.2,0.7,2,1.9,2c0.4,0,0.8-0.1,1-0.2L22.9,50.5z"/>
	<path id="XMLID_330_" class="st6" d="M26.8,48.9c0,1.3-0.9,1.9-1.7,1.9c-0.9,0-1.7-0.7-1.7-1.8c0-1.2,0.8-1.9,1.7-1.9
		C26.1,47.1,26.8,47.8,26.8,48.9z M24,48.9c0,0.8,0.4,1.3,1.1,1.3c0.6,0,1.1-0.6,1.1-1.4c0-0.6-0.3-1.3-1-1.3S24,48.2,24,48.9z"/>
	<path id="XMLID_333_" class="st6" d="M27.6,48.1c0-0.4,0-0.7,0-0.9h0.6l0,0.6h0c0.2-0.3,0.6-0.7,1.2-0.7c0.5,0,1.2,0.3,1.2,1.5v2.1
		h-0.6v-2c0-0.6-0.2-1-0.8-1c-0.4,0-0.7,0.3-0.9,0.6c0,0.1,0,0.2,0,0.3v2.1h-0.6V48.1z"/>
	<path id="XMLID_335_" class="st6" d="M34.1,50.5c-0.2,0.1-0.5,0.2-1,0.2c-1.1,0-1.7-0.7-1.7-1.8c0-1.1,0.7-1.9,1.9-1.9
		c0.4,0,0.7,0.1,0.9,0.2l-0.1,0.5c-0.2-0.1-0.4-0.2-0.7-0.2c-0.8,0-1.2,0.6-1.2,1.3c0,0.8,0.5,1.3,1.2,1.3c0.4,0,0.6-0.1,0.8-0.2
		L34.1,50.5z"/>
	<path id="XMLID_337_" class="st6" d="M37.7,49.7c0,0.4,0,0.7,0,1h-0.6l0-0.6h0c-0.2,0.3-0.5,0.6-1.2,0.6c-0.5,0-1.2-0.3-1.2-1.5v-2
		h0.6v1.9c0,0.7,0.2,1.1,0.8,1.1c0.4,0,0.7-0.3,0.8-0.6c0-0.1,0.1-0.2,0.1-0.3v-2.1h0.6V49.7z"/>
	<path id="XMLID_339_" class="st6" d="M38.8,48.2c0-0.4,0-0.8,0-1.1h0.6l0,0.7h0c0.2-0.5,0.5-0.8,1-0.8c0.1,0,0.1,0,0.2,0v0.6
		c-0.1,0-0.1,0-0.2,0c-0.4,0-0.8,0.3-0.9,0.8c0,0.1,0,0.2,0,0.3v1.9h-0.6V48.2z"/>
	<path id="XMLID_341_" class="st6" d="M41.1,48.2c0-0.4,0-0.8,0-1.1h0.6l0,0.7h0c0.2-0.5,0.5-0.8,1-0.8c0.1,0,0.1,0,0.2,0v0.6
		c-0.1,0-0.1,0-0.2,0c-0.4,0-0.8,0.3-0.8,0.8c0,0.1,0,0.2,0,0.3v1.9h-0.6V48.2z"/>
	<path id="XMLID_343_" class="st6" d="M43.8,49c0,0.9,0.6,1.2,1.2,1.2c0.5,0,0.7-0.1,1-0.2l0.1,0.5c-0.2,0.1-0.6,0.2-1.2,0.2
		c-1.1,0-1.7-0.7-1.7-1.8c0-1.1,0.6-1.9,1.6-1.9c1.1,0,1.4,1,1.4,1.6c0,0.1,0,0.2,0,0.3H43.8z M45.6,48.6c0-0.4-0.2-1-0.9-1
		c-0.6,0-0.9,0.6-1,1H45.6z"/>
	<path id="XMLID_346_" class="st6" d="M47,48.1c0-0.4,0-0.7,0-0.9h0.6l0,0.6h0c0.2-0.3,0.6-0.7,1.2-0.7c0.5,0,1.2,0.3,1.2,1.5v2.1
		h-0.6v-2c0-0.6-0.2-1-0.8-1c-0.4,0-0.7,0.3-0.9,0.6c0,0.1,0,0.2,0,0.3v2.1H47V48.1z"/>
	<path id="XMLID_348_" class="st6" d="M51.8,46.1v1h0.9v0.5h-0.9v1.9c0,0.4,0.1,0.7,0.5,0.7c0.2,0,0.3,0,0.4,0l0,0.5
		c-0.1,0.1-0.3,0.1-0.6,0.1c-0.3,0-0.5-0.1-0.7-0.3c-0.2-0.2-0.2-0.5-0.2-0.9v-1.9h-0.5v-0.5h0.5v-0.8L51.8,46.1z"/>
	<path id="XMLID_350_" class="st6" d="M54.9,48.2c0-0.4,0-0.8,0-1.1h0.6l0,0.7h0c0.2-0.5,0.5-0.8,1-0.8c0.1,0,0.1,0,0.2,0v0.6
		c-0.1,0-0.1,0-0.2,0c-0.4,0-0.8,0.3-0.9,0.8c0,0.1,0,0.2,0,0.3v1.9h-0.6V48.2z"/>
	<path id="XMLID_352_" class="st6" d="M57.5,49c0,0.9,0.6,1.2,1.2,1.2c0.5,0,0.7-0.1,1-0.2l0.1,0.5c-0.2,0.1-0.6,0.2-1.2,0.2
		c-1.1,0-1.7-0.7-1.7-1.8c0-1.1,0.6-1.9,1.6-1.9c1.1,0,1.4,1,1.4,1.6c0,0.1,0,0.2,0,0.3H57.5z M59.4,48.6c0-0.4-0.2-1-0.9-1
		c-0.6,0-0.9,0.6-1,1H59.4z"/>
	<path id="XMLID_355_" class="st6" d="M63.2,50.1L63.2,50.1c-0.2,0.3-0.6,0.6-1.2,0.6c-0.8,0-1.5-0.7-1.5-1.8c0-1.3,0.8-1.9,1.6-1.9
		c0.5,0,0.9,0.3,1.1,0.6h0l0-0.5h0.6c0,0.3,0,0.6,0,1v4h-0.6V50.1z M63.2,48.6c0-0.1,0-0.2,0-0.3c-0.1-0.4-0.4-0.7-0.9-0.7
		c-0.7,0-1.1,0.6-1.1,1.3c0,0.7,0.3,1.3,1,1.3c0.4,0,0.8-0.3,0.9-0.7c0-0.1,0.1-0.2,0.1-0.3V48.6z"/>
	<path id="XMLID_358_" class="st6" d="M67.8,49.7c0,0.4,0,0.7,0,1h-0.6l0-0.6h0c-0.2,0.3-0.5,0.6-1.2,0.6c-0.5,0-1.2-0.3-1.2-1.5v-2
		h0.6v1.9c0,0.7,0.2,1.1,0.8,1.1c0.4,0,0.7-0.3,0.8-0.6c0-0.1,0.1-0.2,0.1-0.3v-2.1h0.6V49.7z"/>
	<path id="XMLID_360_" class="st6" d="M69.2,49c0,0.9,0.6,1.2,1.2,1.2c0.5,0,0.7-0.1,1-0.2l0.1,0.5c-0.2,0.1-0.6,0.2-1.2,0.2
		c-1.1,0-1.7-0.7-1.7-1.8c0-1.1,0.6-1.9,1.6-1.9c1.1,0,1.4,1,1.4,1.6c0,0.1,0,0.2,0,0.3H69.2z M71,48.6c0-0.4-0.2-1-0.9-1
		c-0.6,0-0.9,0.6-1,1H71z"/>
	<path id="XMLID_363_" class="st6" d="M72.3,50c0.2,0.1,0.5,0.3,0.8,0.3c0.5,0,0.7-0.2,0.7-0.5c0-0.3-0.2-0.5-0.6-0.6
		c-0.6-0.2-0.9-0.6-0.9-1c0-0.6,0.5-1,1.2-1c0.4,0,0.7,0.1,0.9,0.2l-0.2,0.5c-0.1-0.1-0.4-0.2-0.7-0.2c-0.4,0-0.6,0.2-0.6,0.5
		c0,0.3,0.2,0.4,0.7,0.6c0.6,0.2,0.9,0.5,0.9,1.1c0,0.6-0.5,1-1.3,1c-0.4,0-0.7-0.1-1-0.2L72.3,50z"/>
	<path id="XMLID_365_" class="st6" d="M76,46.1v1H77v0.5H76v1.9c0,0.4,0.1,0.7,0.5,0.7c0.2,0,0.3,0,0.4,0l0,0.5
		c-0.1,0.1-0.3,0.1-0.6,0.1c-0.3,0-0.5-0.1-0.7-0.3c-0.2-0.2-0.2-0.5-0.2-0.9v-1.9h-0.5v-0.5h0.5v-0.8L76,46.1z"/>
	<path id="XMLID_367_" class="st6" d="M77.6,50c0.2,0.1,0.5,0.3,0.8,0.3c0.5,0,0.7-0.2,0.7-0.5c0-0.3-0.2-0.5-0.6-0.6
		c-0.6-0.2-0.9-0.6-0.9-1c0-0.6,0.5-1,1.2-1c0.4,0,0.7,0.1,0.9,0.2l-0.2,0.5c-0.1-0.1-0.4-0.2-0.7-0.2c-0.4,0-0.6,0.2-0.6,0.5
		c0,0.3,0.2,0.4,0.7,0.6c0.6,0.2,0.9,0.5,0.9,1.1c0,0.6-0.5,1-1.3,1c-0.4,0-0.7-0.1-1-0.2L77.6,50z"/>
	<path id="XMLID_369_" class="st6" d="M19.6,59.3v-3h-0.5v-0.5h0.5v-0.2c0-0.5,0.1-0.9,0.4-1.2c0.2-0.2,0.6-0.3,0.8-0.3
		c0.2,0,0.4,0.1,0.5,0.1l-0.1,0.5c-0.1,0-0.2-0.1-0.4-0.1c-0.5,0-0.7,0.5-0.7,1v0.2h0.8v0.5h-0.8v3H19.6z"/>
	<path id="XMLID_371_" class="st6" d="M24.7,57.5c0,1.3-0.9,1.9-1.7,1.9c-0.9,0-1.7-0.7-1.7-1.8c0-1.2,0.8-1.9,1.7-1.9
		C24,55.7,24.7,56.4,24.7,57.5z M21.9,57.5c0,0.8,0.4,1.3,1.1,1.3c0.6,0,1.1-0.6,1.1-1.4c0-0.6-0.3-1.3-1-1.3S21.9,56.9,21.9,57.5z"
		/>
	<path id="XMLID_374_" class="st6" d="M25.5,56.9c0-0.4,0-0.8,0-1.1H26l0,0.7h0c0.2-0.5,0.5-0.8,1-0.8c0.1,0,0.1,0,0.2,0v0.6
		c-0.1,0-0.1,0-0.2,0c-0.4,0-0.8,0.3-0.8,0.8c0,0.1,0,0.2,0,0.3v1.9h-0.6V56.9z"/>
	<path id="XMLID_376_" class="st6" d="M29.3,58.5c0.3,0.2,0.7,0.3,1.1,0.3c0.6,0,1-0.3,1-0.8c0-0.5-0.3-0.7-0.9-1
		c-0.8-0.3-1.3-0.7-1.3-1.4c0-0.8,0.6-1.3,1.6-1.3c0.5,0,0.9,0.1,1.1,0.2l-0.2,0.5c-0.2-0.1-0.5-0.2-0.9-0.2c-0.7,0-0.9,0.4-0.9,0.7
		c0,0.5,0.3,0.7,1,0.9c0.8,0.3,1.2,0.7,1.2,1.4c0,0.7-0.6,1.4-1.7,1.4c-0.5,0-1-0.1-1.2-0.3L29.3,58.5z"/>
	<path id="XMLID_378_" class="st6" d="M33.3,57.6c0,0.9,0.6,1.2,1.2,1.2c0.5,0,0.7-0.1,1-0.2l0.1,0.5c-0.2,0.1-0.6,0.2-1.2,0.2
		c-1.1,0-1.7-0.7-1.7-1.8c0-1.1,0.6-1.9,1.6-1.9c1.1,0,1.4,1,1.4,1.6c0,0.1,0,0.2,0,0.3H33.3z M35.2,57.2c0-0.4-0.2-1-0.9-1
		c-0.6,0-0.9,0.6-1,1H35.2z"/>
	<path id="XMLID_381_" class="st6" d="M36.6,56.9c0-0.4,0-0.8,0-1.1h0.6l0,0.7h0c0.2-0.5,0.5-0.8,1-0.8c0.1,0,0.1,0,0.2,0v0.6
		c-0.1,0-0.1,0-0.2,0c-0.4,0-0.8,0.3-0.9,0.8c0,0.1,0,0.2,0,0.3v1.9h-0.6V56.9z"/>
	<path id="XMLID_383_" class="st6" d="M39.3,55.8l0.7,2c0.1,0.3,0.2,0.6,0.3,0.9h0c0.1-0.3,0.2-0.6,0.3-0.9l0.7-2H42l-1.4,3.5H40
		l-1.3-3.5H39.3z"/>
	<path id="XMLID_385_" class="st6" d="M43.3,54.8c0,0.2-0.2,0.4-0.4,0.4c-0.2,0-0.4-0.2-0.4-0.4c0-0.2,0.2-0.4,0.4-0.4
		C43.1,54.4,43.3,54.6,43.3,54.8z M42.6,59.3v-3.5h0.6v3.5H42.6z"/>
	<path id="XMLID_388_" class="st6" d="M46.7,59.1c-0.2,0.1-0.5,0.2-1,0.2c-1.1,0-1.7-0.7-1.7-1.8c0-1.1,0.7-1.9,1.9-1.9
		c0.4,0,0.7,0.1,0.9,0.2l-0.1,0.5c-0.2-0.1-0.4-0.2-0.7-0.2c-0.8,0-1.2,0.6-1.2,1.3c0,0.8,0.5,1.3,1.2,1.3c0.4,0,0.6-0.1,0.8-0.2
		L46.7,59.1z"/>
	<path id="XMLID_390_" class="st6" d="M47.8,57.6c0,0.9,0.6,1.2,1.2,1.2c0.5,0,0.7-0.1,1-0.2l0.1,0.5c-0.2,0.1-0.6,0.2-1.2,0.2
		c-1.1,0-1.7-0.7-1.7-1.8c0-1.1,0.6-1.9,1.6-1.9c1.1,0,1.4,1,1.4,1.6c0,0.1,0,0.2,0,0.3H47.8z M49.6,57.2c0-0.4-0.2-1-0.9-1
		c-0.6,0-0.9,0.6-1,1H49.6z"/>
	<path id="XMLID_393_" class="st6" d="M52.7,57.1v0.5h-1.8v-0.5H52.7z"/>
	<path id="XMLID_395_" class="st6" d="M56,59.3l-0.6-1.1c-0.3-0.4-0.4-0.7-0.6-1h0c-0.1,0.3-0.3,0.5-0.5,1l-0.6,1.1h-0.7l1.5-2.5
		L53,54.4h0.7l0.6,1.1c0.2,0.3,0.3,0.6,0.4,0.8h0c0.1-0.3,0.3-0.5,0.4-0.8l0.7-1.1h0.7l-1.5,2.4l1.5,2.5H56z"/>
</g>
<line id="XMLID_12_" class="st3" x1="270.4" y1="52.2" x2="304.7" y2="52.2"/>
<g id="XMLID_19_">
	<path id="XMLID_28_" class="st1" d="M436.7,83.4H311.3c-4,0-7.2-3.2-7.2-7.2V28.1c0-4,3.2-7.2,7.2-7.2h125.4c4,0,7.2,3.2,7.2,7.2
		v48.1C443.9,80.2,440.7,83.4,436.7,83.4z"/>
	<path id="XMLID_27_" class="st2" d="M436.7,83.4H311.3c-4,0-7.2-3.2-7.2-7.2V28.1c0-4,3.2-7.2,7.2-7.2h125.4c4,0,7.2,3.2,7.2,7.2
		v48.1C443.9,80.2,440.7,83.4,436.7,83.4z"/>
</g>
<g id="XMLID_13_">
	<g id="XMLID_15_">
		<rect id="XMLID_18_" x="340.3" y="33.4" class="st7" width="80.9" height="30.6"/>
		<rect id="XMLID_17_" x="337.8" y="36.5" class="st7" width="80.9" height="30.6"/>
		<rect id="XMLID_16_" x="335.2" y="39.6" class="st7" width="80.9" height="30.6"/>
	</g>
	<g id="XMLID_288_">
		<path id="XMLID_289_" class="st0" d="M349.4,53.3l-0.5,1.5h-0.6l1.6-4.9h0.8l1.7,4.9h-0.7l-0.5-1.5H349.4z M350.9,52.9l-0.5-1.4
			c-0.1-0.3-0.2-0.6-0.3-0.9h0c-0.1,0.3-0.2,0.6-0.2,0.9l-0.5,1.4H350.9z"/>
		<path id="XMLID_292_" class="st0" d="M352.9,52.5c0-0.4,0-0.8,0-1.1h0.6l0,0.7h0c0.2-0.5,0.5-0.8,1-0.8c0.1,0,0.1,0,0.2,0v0.6
			c-0.1,0-0.1,0-0.2,0c-0.4,0-0.8,0.3-0.8,0.8c0,0.1,0,0.2,0,0.3v1.9h-0.6V52.5z"/>
		<path id="XMLID_294_" class="st0" d="M355.3,52.5c0-0.4,0-0.8,0-1.1h0.6l0,0.7h0c0.2-0.5,0.5-0.8,1-0.8c0.1,0,0.1,0,0.2,0v0.6
			c-0.1,0-0.1,0-0.2,0c-0.4,0-0.8,0.3-0.9,0.8c0,0.1,0,0.2,0,0.3v1.9h-0.6V52.5z"/>
		<path id="XMLID_296_" class="st0" d="M359.6,54.9l-0.1-0.4h0c-0.2,0.3-0.6,0.5-1.1,0.5c-0.7,0-1.1-0.5-1.1-1
			c0-0.8,0.7-1.3,2.1-1.3v-0.1c0-0.3-0.1-0.8-0.8-0.8c-0.3,0-0.7,0.1-0.9,0.3l-0.1-0.4c0.3-0.2,0.7-0.3,1.1-0.3
			c1.1,0,1.3,0.7,1.3,1.4V54c0,0.3,0,0.6,0.1,0.8H359.6z M359.5,53.1c-0.7,0-1.5,0.1-1.5,0.8c0,0.4,0.3,0.6,0.6,0.6
			c0.5,0,0.7-0.3,0.8-0.6c0-0.1,0-0.1,0-0.2V53.1z"/>
		<path id="XMLID_299_" class="st0" d="M361.3,51.4l0.8,2.1c0.1,0.2,0.2,0.5,0.2,0.7h0c0.1-0.2,0.1-0.5,0.2-0.7l0.7-2h0.7l-1,2.5
			c-0.5,1.2-0.8,1.8-1.2,2.2c-0.3,0.3-0.6,0.4-0.8,0.4l-0.2-0.5c0.2-0.1,0.4-0.2,0.6-0.3c0.2-0.1,0.4-0.4,0.5-0.7
			c0-0.1,0.1-0.1,0.1-0.2c0,0,0-0.1,0-0.2l-1.3-3.2H361.3z"/>
		<path id="XMLID_301_" class="st0" d="M369.1,53.1c0,1.3-0.9,1.9-1.7,1.9c-0.9,0-1.7-0.7-1.7-1.8c0-1.2,0.8-1.9,1.7-1.9
			C368.4,51.3,369.1,52,369.1,53.1z M366.4,53.1c0,0.8,0.4,1.3,1.1,1.3c0.6,0,1.1-0.6,1.1-1.4c0-0.6-0.3-1.3-1-1.3
			S366.4,52.5,366.4,53.1z"/>
		<path id="XMLID_304_" class="st0" d="M370,54.9v-3h-0.5v-0.5h0.5v-0.2c0-0.5,0.1-0.9,0.4-1.2c0.2-0.2,0.6-0.3,0.8-0.3
			c0.2,0,0.4,0.1,0.5,0.1l-0.1,0.5c-0.1,0-0.2-0.1-0.4-0.1c-0.5,0-0.7,0.5-0.7,1v0.2h0.8v0.5h-0.8v3H370z"/>
		<path id="XMLID_306_" class="st0" d="M373.5,54.1c0.3,0.2,0.7,0.3,1.1,0.3c0.6,0,1-0.3,1-0.8c0-0.5-0.3-0.7-0.9-1
			c-0.8-0.3-1.3-0.7-1.3-1.4c0-0.8,0.6-1.3,1.6-1.3c0.5,0,0.9,0.1,1.1,0.2l-0.2,0.5c-0.2-0.1-0.5-0.2-0.9-0.2
			c-0.7,0-0.9,0.4-0.9,0.7c0,0.5,0.3,0.7,1,0.9c0.8,0.3,1.2,0.7,1.2,1.4c0,0.7-0.6,1.4-1.7,1.4c-0.5,0-1-0.1-1.2-0.3L373.5,54.1z"/>
		<path id="XMLID_308_" class="st0" d="M377.5,53.2c0,0.9,0.6,1.2,1.2,1.2c0.5,0,0.7-0.1,1-0.2l0.1,0.5c-0.2,0.1-0.6,0.2-1.2,0.2
			c-1.1,0-1.7-0.7-1.7-1.8c0-1.1,0.6-1.9,1.6-1.9c1.1,0,1.4,1,1.4,1.6c0,0.1,0,0.2,0,0.3H377.5z M379.3,52.8c0-0.4-0.2-1-0.9-1
			c-0.6,0-0.9,0.6-1,1H379.3z"/>
		<path id="XMLID_311_" class="st0" d="M380.7,52.5c0-0.4,0-0.8,0-1.1h0.6l0,0.7h0c0.2-0.5,0.5-0.8,1-0.8c0.1,0,0.1,0,0.2,0v0.6
			c-0.1,0-0.1,0-0.2,0c-0.4,0-0.8,0.3-0.9,0.8c0,0.1,0,0.2,0,0.3v1.9h-0.6V52.5z"/>
		<path id="XMLID_313_" class="st0" d="M383.5,51.4l0.7,2c0.1,0.3,0.2,0.6,0.3,0.9h0c0.1-0.3,0.2-0.6,0.3-0.9l0.7-2h0.7l-1.4,3.5
			h-0.6l-1.3-3.5H383.5z"/>
		<path id="XMLID_315_" class="st0" d="M387.4,50.4c0,0.2-0.2,0.4-0.4,0.4c-0.2,0-0.4-0.2-0.4-0.4c0-0.2,0.2-0.4,0.4-0.4
			C387.3,50,387.4,50.2,387.4,50.4z M386.7,54.9v-3.5h0.6v3.5H386.7z"/>
		<path id="XMLID_318_" class="st0" d="M390.9,54.7c-0.2,0.1-0.5,0.2-1,0.2c-1.1,0-1.7-0.7-1.7-1.8c0-1.1,0.7-1.9,1.9-1.9
			c0.4,0,0.7,0.1,0.9,0.2l-0.1,0.5c-0.2-0.1-0.4-0.2-0.7-0.2c-0.8,0-1.2,0.6-1.2,1.3c0,0.8,0.5,1.3,1.2,1.3c0.4,0,0.6-0.1,0.8-0.2
			L390.9,54.7z"/>
		<path id="XMLID_320_" class="st0" d="M392,53.2c0,0.9,0.6,1.2,1.2,1.2c0.5,0,0.7-0.1,1-0.2l0.1,0.5c-0.2,0.1-0.6,0.2-1.2,0.2
			c-1.1,0-1.7-0.7-1.7-1.8c0-1.1,0.6-1.9,1.6-1.9c1.1,0,1.4,1,1.4,1.6c0,0.1,0,0.2,0,0.3H392z M393.8,52.8c0-0.4-0.2-1-0.9-1
			c-0.6,0-0.9,0.6-1,1H393.8z"/>
		<path id="XMLID_323_" class="st0" d="M396.9,52.7v0.5h-1.8v-0.5H396.9z"/>
		<path id="XMLID_325_" class="st0" d="M400.1,54.9l-0.6-1.1c-0.3-0.4-0.4-0.7-0.6-1h0c-0.1,0.3-0.3,0.5-0.5,1l-0.6,1.1h-0.7
			l1.5-2.5l-1.4-2.4h0.7l0.6,1.1c0.2,0.3,0.3,0.6,0.4,0.8h0c0.1-0.3,0.3-0.5,0.4-0.8l0.7-1.1h0.7l-1.5,2.4l1.5,2.5H400.1z"/>
	</g>
</g>
<g id="XMLID_114_">
	<path id="XMLID_115_" class="st6" d="M41.4,98.9h-3.1v2.9h3.5v0.9h-4.5v-8.1h4.4v0.9h-3.3V98h3.1V98.9z"/>
	<path id="XMLID_117_" class="st6" d="M46.3,102.7l-0.1-0.7h0c-0.3,0.5-0.9,0.9-1.8,0.9c-1.2,0-1.8-0.8-1.8-1.7
		c0-1.4,1.2-2.2,3.5-2.2v-0.1c0-0.5-0.1-1.3-1.3-1.3c-0.5,0-1.1,0.2-1.5,0.4l-0.2-0.7c0.5-0.3,1.2-0.5,1.9-0.5
		c1.8,0,2.2,1.2,2.2,2.4v2.2c0,0.5,0,1,0.1,1.4H46.3z M46.2,99.7c-1.2,0-2.5,0.2-2.5,1.3c0,0.7,0.5,1,1,1c0.8,0,1.2-0.5,1.4-1
		c0-0.1,0.1-0.2,0.1-0.3V99.7z"/>
	<path id="XMLID_120_" class="st6" d="M53,102.5c-0.3,0.1-0.9,0.3-1.7,0.3c-1.8,0-2.9-1.2-2.9-3c0-1.8,1.2-3.1,3.1-3.1
		c0.6,0,1.2,0.2,1.5,0.3l-0.2,0.8c-0.3-0.1-0.6-0.3-1.2-0.3c-1.3,0-2.1,1-2.1,2.2c0,1.3,0.9,2.2,2,2.2c0.6,0,1-0.2,1.3-0.3L53,102.5
		z"/>
	<path id="XMLID_122_" class="st6" d="M54.3,94.2h1.1v3.6h0c0.2-0.3,0.4-0.6,0.8-0.7c0.3-0.2,0.7-0.3,1.1-0.3c0.8,0,2,0.5,2,2.5v3.5
		h-1.1v-3.3c0-0.9-0.3-1.7-1.3-1.7c-0.7,0-1.2,0.5-1.4,1.1c-0.1,0.1-0.1,0.3-0.1,0.5v3.5h-1.1V94.2z"/>
	<path id="XMLID_124_" class="st6" d="M63.3,101.6c0.3,0.2,0.9,0.4,1.4,0.4c0.8,0,1.1-0.4,1.1-0.9c0-0.5-0.3-0.8-1.1-1.1
		c-1-0.4-1.5-0.9-1.5-1.6c0-0.9,0.8-1.7,2-1.7c0.6,0,1.1,0.2,1.4,0.4l-0.3,0.8c-0.2-0.1-0.6-0.3-1.2-0.3c-0.6,0-1,0.4-1,0.8
		c0,0.5,0.3,0.7,1.1,1c1,0.4,1.5,0.9,1.5,1.8c0,1-0.8,1.7-2.2,1.7c-0.6,0-1.2-0.2-1.6-0.4L63.3,101.6z"/>
	<path id="XMLID_126_" class="st6" d="M68.8,100c0,1.4,0.9,2,2,2c0.8,0,1.2-0.1,1.6-0.3l0.2,0.8c-0.4,0.2-1,0.4-1.9,0.4
		c-1.8,0-2.9-1.2-2.9-2.9c0-1.8,1-3.1,2.7-3.1c1.9,0,2.4,1.7,2.4,2.7c0,0.2,0,0.4,0,0.5H68.8z M71.9,99.2c0-0.7-0.3-1.7-1.5-1.7
		c-1.1,0-1.5,1-1.6,1.7H71.9z"/>
	<path id="XMLID_147_" class="st6" d="M74.2,98.7c0-0.7,0-1.3,0-1.8h0.9l0,1.1h0c0.3-0.8,0.9-1.3,1.6-1.3c0.1,0,0.2,0,0.3,0v1
		c-0.1,0-0.2,0-0.4,0c-0.7,0-1.3,0.6-1.4,1.4c0,0.1,0,0.3,0,0.5v3.1h-1V98.7z"/>
	<path id="XMLID_149_" class="st6" d="M78.9,96.9l1.1,3.3c0.2,0.5,0.3,1,0.5,1.5h0c0.1-0.5,0.3-1,0.5-1.5l1.1-3.3h1.1l-2.3,5.8h-1
		l-2.2-5.8H78.9z"/>
	<path id="XMLID_151_" class="st6" d="M85.4,95.2c0,0.4-0.3,0.6-0.7,0.6c-0.4,0-0.6-0.3-0.6-0.6c0-0.4,0.3-0.7,0.7-0.7
		C85.2,94.6,85.4,94.9,85.4,95.2z M84.2,102.7v-5.8h1.1v5.8H84.2z"/>
	<path id="XMLID_154_" class="st6" d="M91.2,102.5c-0.3,0.1-0.9,0.3-1.7,0.3c-1.8,0-2.9-1.2-2.9-3c0-1.8,1.2-3.1,3.1-3.1
		c0.6,0,1.2,0.2,1.5,0.3L91,97.9c-0.3-0.1-0.6-0.3-1.2-0.3c-1.3,0-2.1,1-2.1,2.2c0,1.3,0.9,2.2,2,2.2c0.6,0,1-0.2,1.3-0.3
		L91.2,102.5z"/>
	<path id="XMLID_156_" class="st6" d="M92.9,100c0,1.4,0.9,2,2,2c0.8,0,1.2-0.1,1.6-0.3l0.2,0.8c-0.4,0.2-1,0.4-1.9,0.4
		c-1.8,0-2.9-1.2-2.9-2.9c0-1.8,1-3.1,2.7-3.1c1.9,0,2.4,1.7,2.4,2.7c0,0.2,0,0.4,0,0.5H92.9z M96,99.2c0-0.7-0.3-1.7-1.5-1.7
		c-1.1,0-1.5,1-1.6,1.7H96z"/>
	<path id="XMLID_159_" class="st6" d="M102.1,95.2c0,0.4-0.3,0.6-0.7,0.6c-0.4,0-0.6-0.3-0.6-0.6c0-0.4,0.3-0.7,0.7-0.7
		C101.8,94.6,102.1,94.9,102.1,95.2z M100.9,102.7v-5.8h1.1v5.8H100.9z"/>
	<path id="XMLID_162_" class="st6" d="M103.6,101.6c0.3,0.2,0.9,0.4,1.4,0.4c0.8,0,1.1-0.4,1.1-0.9c0-0.5-0.3-0.8-1.1-1.1
		c-1-0.4-1.5-0.9-1.5-1.6c0-0.9,0.8-1.7,2-1.7c0.6,0,1.1,0.2,1.4,0.4l-0.3,0.8c-0.2-0.1-0.6-0.3-1.2-0.3c-0.6,0-1,0.4-1,0.8
		c0,0.5,0.3,0.7,1.1,1c1,0.4,1.5,0.9,1.5,1.8c0,1-0.8,1.7-2.2,1.7c-0.6,0-1.2-0.2-1.6-0.4L103.6,101.6z"/>
	<path id="XMLID_164_" class="st6" d="M114.2,102.7l-0.1-0.7h0c-0.3,0.5-0.9,0.9-1.8,0.9c-1.2,0-1.8-0.8-1.8-1.7
		c0-1.4,1.2-2.2,3.5-2.2v-0.1c0-0.5-0.1-1.3-1.3-1.3c-0.5,0-1.1,0.2-1.5,0.4l-0.2-0.7c0.5-0.3,1.2-0.5,1.9-0.5
		c1.8,0,2.2,1.2,2.2,2.4v2.2c0,0.5,0,1,0.1,1.4H114.2z M114.1,99.7c-1.2,0-2.5,0.2-2.5,1.3c0,0.7,0.5,1,1,1c0.8,0,1.2-0.5,1.4-1
		c0-0.1,0.1-0.2,0.1-0.3V99.7z"/>
	<path id="XMLID_167_" class="st6" d="M120.9,102.5c-0.3,0.1-0.9,0.3-1.7,0.3c-1.8,0-2.9-1.2-2.9-3c0-1.8,1.2-3.1,3.1-3.1
		c0.6,0,1.2,0.2,1.5,0.3l-0.2,0.8c-0.3-0.1-0.6-0.3-1.2-0.3c-1.3,0-2.1,1-2.1,2.2c0,1.3,0.9,2.2,2,2.2c0.6,0,1-0.2,1.3-0.3
		L120.9,102.5z"/>
	<path id="XMLID_169_" class="st6" d="M126.2,102.5c-0.3,0.1-0.9,0.3-1.7,0.3c-1.8,0-2.9-1.2-2.9-3c0-1.8,1.2-3.1,3.1-3.1
		c0.6,0,1.2,0.2,1.5,0.3l-0.2,0.8c-0.3-0.1-0.6-0.3-1.2-0.3c-1.3,0-2.1,1-2.1,2.2c0,1.3,0.9,2.2,2,2.2c0.6,0,1-0.2,1.3-0.3
		L126.2,102.5z"/>
	<path id="XMLID_171_" class="st6" d="M128,100c0,1.4,0.9,2,2,2c0.8,0,1.2-0.1,1.6-0.3l0.2,0.8c-0.4,0.2-1,0.4-1.9,0.4
		c-1.8,0-2.9-1.2-2.9-2.9c0-1.8,1-3.1,2.7-3.1c1.9,0,2.4,1.7,2.4,2.7c0,0.2,0,0.4,0,0.5H128z M131.1,99.2c0-0.7-0.3-1.7-1.5-1.7
		c-1.1,0-1.5,1-1.6,1.7H131.1z"/>
	<path id="XMLID_174_" class="st6" d="M133.3,101.6c0.3,0.2,0.9,0.4,1.4,0.4c0.8,0,1.1-0.4,1.1-0.9c0-0.5-0.3-0.8-1.1-1.1
		c-1-0.4-1.5-0.9-1.5-1.6c0-0.9,0.8-1.7,2-1.7c0.6,0,1.1,0.2,1.4,0.4l-0.3,0.8c-0.2-0.1-0.6-0.3-1.2-0.3c-0.6,0-1,0.4-1,0.8
		c0,0.5,0.3,0.7,1.1,1c1,0.4,1.5,0.9,1.5,1.8c0,1-0.8,1.7-2.2,1.7c-0.6,0-1.2-0.2-1.6-0.4L133.3,101.6z"/>
	<path id="XMLID_176_" class="st6" d="M138,101.6c0.3,0.2,0.9,0.4,1.4,0.4c0.8,0,1.1-0.4,1.1-0.9c0-0.5-0.3-0.8-1.1-1.1
		c-1-0.4-1.5-0.9-1.5-1.6c0-0.9,0.8-1.7,2-1.7c0.6,0,1.1,0.2,1.4,0.4l-0.3,0.8c-0.2-0.1-0.6-0.3-1.2-0.3c-0.6,0-1,0.4-1,0.8
		c0,0.5,0.3,0.7,1.1,1c1,0.4,1.5,0.9,1.5,1.8c0,1-0.8,1.7-2.2,1.7c-0.6,0-1.2-0.2-1.6-0.4L138,101.6z"/>
	<path id="XMLID_178_" class="st6" d="M143.5,100c0,1.4,0.9,2,2,2c0.8,0,1.2-0.1,1.6-0.3l0.2,0.8c-0.4,0.2-1,0.4-1.9,0.4
		c-1.8,0-2.9-1.2-2.9-2.9c0-1.8,1-3.1,2.7-3.1c1.9,0,2.4,1.7,2.4,2.7c0,0.2,0,0.4,0,0.5H143.5z M146.6,99.2c0-0.7-0.3-1.7-1.5-1.7
		c-1.1,0-1.5,1-1.6,1.7H146.6z"/>
	<path id="XMLID_181_" class="st6" d="M153.9,94.2v7c0,0.5,0,1.1,0,1.5H153l0-1h0c-0.3,0.6-1,1.1-2,1.1c-1.4,0-2.5-1.2-2.5-3
		c0-1.9,1.2-3.1,2.6-3.1c0.9,0,1.5,0.4,1.8,0.9h0v-3.5H153.9z M152.9,99.2c0-0.1,0-0.3,0-0.4c-0.2-0.7-0.7-1.2-1.5-1.2
		c-1.1,0-1.7,1-1.7,2.2c0,1.2,0.6,2.1,1.7,2.1c0.7,0,1.4-0.5,1.5-1.3c0-0.1,0-0.3,0-0.5V99.2z"/>
	<path id="XMLID_184_" class="st6" d="M158.6,96.9l1.1,3.3c0.2,0.5,0.3,1,0.5,1.5h0c0.1-0.5,0.3-1,0.5-1.5l1.1-3.3h1.1l-2.3,5.8h-1
		l-2.2-5.8H158.6z"/>
	<path id="XMLID_186_" class="st6" d="M165.2,95.2c0,0.4-0.3,0.6-0.7,0.6c-0.4,0-0.6-0.3-0.6-0.6c0-0.4,0.3-0.7,0.7-0.7
		C164.9,94.6,165.2,94.9,165.2,95.2z M164,102.7v-5.8h1.1v5.8H164z"/>
	<path id="XMLID_189_" class="st6" d="M170,102.7l-0.1-0.7h0c-0.3,0.5-0.9,0.9-1.8,0.9c-1.2,0-1.8-0.8-1.8-1.7
		c0-1.4,1.2-2.2,3.5-2.2v-0.1c0-0.5-0.1-1.3-1.3-1.3c-0.5,0-1.1,0.2-1.5,0.4l-0.2-0.7c0.5-0.3,1.2-0.5,1.9-0.5
		c1.8,0,2.2,1.2,2.2,2.4v2.2c0,0.5,0,1,0.1,1.4H170z M169.9,99.7c-1.2,0-2.5,0.2-2.5,1.3c0,0.7,0.5,1,1,1c0.8,0,1.2-0.5,1.4-1
		c0-0.1,0.1-0.2,0.1-0.3V99.7z"/>
	<path id="XMLID_192_" class="st6" d="M178.4,102.7l-0.1-0.7h0c-0.3,0.5-0.9,0.9-1.8,0.9c-1.2,0-1.8-0.8-1.8-1.7
		c0-1.4,1.2-2.2,3.5-2.2v-0.1c0-0.5-0.1-1.3-1.3-1.3c-0.5,0-1.1,0.2-1.5,0.4l-0.2-0.7c0.5-0.3,1.2-0.5,1.9-0.5
		c1.8,0,2.2,1.2,2.2,2.4v2.2c0,0.5,0,1,0.1,1.4H178.4z M178.2,99.7c-1.2,0-2.5,0.2-2.5,1.3c0,0.7,0.5,1,1,1c0.8,0,1.2-0.5,1.4-1
		c0-0.1,0.1-0.2,0.1-0.3V99.7z"/>
	<path id="XMLID_195_" class="st6" d="M183.5,94.2h1.1v8.5h-1.1V94.2z"/>
	<path id="XMLID_197_" class="st6" d="M191.6,99.7c0,2.1-1.5,3.1-2.9,3.1c-1.6,0-2.8-1.2-2.8-3c0-1.9,1.3-3.1,2.9-3.1
		C190.4,96.7,191.6,97.9,191.6,99.7z M187,99.8c0,1.3,0.7,2.2,1.8,2.2c1,0,1.8-0.9,1.8-2.3c0-1-0.5-2.2-1.7-2.2
		C187.5,97.5,187,98.7,187,99.8z"/>
	<path id="XMLID_200_" class="st6" d="M196.1,102.7l-0.1-0.7h0c-0.3,0.5-0.9,0.9-1.8,0.9c-1.2,0-1.8-0.8-1.8-1.7
		c0-1.4,1.2-2.2,3.5-2.2v-0.1c0-0.5-0.1-1.3-1.3-1.3c-0.5,0-1.1,0.2-1.5,0.4l-0.2-0.7c0.5-0.3,1.2-0.5,1.9-0.5
		c1.8,0,2.2,1.2,2.2,2.4v2.2c0,0.5,0,1,0.1,1.4H196.1z M196,99.7c-1.2,0-2.5,0.2-2.5,1.3c0,0.7,0.5,1,1,1c0.8,0,1.2-0.5,1.4-1
		c0-0.1,0.1-0.2,0.1-0.3V99.7z"/>
	<path id="XMLID_203_" class="st6" d="M203.7,94.2v7c0,0.5,0,1.1,0,1.5h-0.9l0-1h0c-0.3,0.6-1,1.1-2,1.1c-1.4,0-2.5-1.2-2.5-3
		c0-1.9,1.2-3.1,2.6-3.1c0.9,0,1.5,0.4,1.8,0.9h0v-3.5H203.7z M202.6,99.2c0-0.1,0-0.3,0-0.4c-0.2-0.7-0.7-1.2-1.5-1.2
		c-1.1,0-1.7,1-1.7,2.2c0,1.2,0.6,2.1,1.7,2.1c0.7,0,1.4-0.5,1.5-1.3c0-0.1,0-0.3,0-0.5V99.2z"/>
	<path id="XMLID_206_" class="st6" d="M207.9,102.7c0-0.4,0-1,0-1.5v-7h1v3.6h0c0.4-0.6,1-1.1,2-1.1c1.4,0,2.5,1.2,2.4,3
		c0,2.1-1.3,3.1-2.6,3.1c-0.8,0-1.5-0.3-1.9-1.1h0l0,1H207.9z M209,100.3c0,0.1,0,0.3,0,0.4c0.2,0.7,0.8,1.2,1.6,1.2
		c1.1,0,1.8-0.9,1.8-2.2c0-1.2-0.6-2.2-1.7-2.2c-0.7,0-1.4,0.5-1.6,1.3c0,0.1-0.1,0.3-0.1,0.4V100.3z"/>
	<path id="XMLID_209_" class="st6" d="M218,102.7l-0.1-0.7h0c-0.3,0.5-0.9,0.9-1.8,0.9c-1.2,0-1.8-0.8-1.8-1.7
		c0-1.4,1.2-2.2,3.5-2.2v-0.1c0-0.5-0.1-1.3-1.3-1.3c-0.5,0-1.1,0.2-1.5,0.4l-0.2-0.7c0.5-0.3,1.2-0.5,1.9-0.5
		c1.8,0,2.2,1.2,2.2,2.4v2.2c0,0.5,0,1,0.1,1.4H218z M217.9,99.7c-1.2,0-2.5,0.2-2.5,1.3c0,0.7,0.5,1,1,1c0.8,0,1.2-0.5,1.4-1
		c0-0.1,0.1-0.2,0.1-0.3V99.7z"/>
	<path id="XMLID_212_" class="st6" d="M220.6,98.4c0-0.6,0-1.1,0-1.6h0.9l0.1,1h0c0.3-0.6,1-1.1,1.9-1.1c0.8,0,2.1,0.5,2.1,2.5v3.5
		h-1.1v-3.3c0-0.9-0.3-1.7-1.3-1.7c-0.7,0-1.2,0.5-1.4,1.1c0,0.1-0.1,0.3-0.1,0.5v3.5h-1.1V98.4z"/>
	<path id="XMLID_214_" class="st6" d="M230.5,102.7l-0.1-0.7h0c-0.3,0.5-0.9,0.9-1.8,0.9c-1.2,0-1.8-0.8-1.8-1.7
		c0-1.4,1.2-2.2,3.5-2.2v-0.1c0-0.5-0.1-1.3-1.3-1.3c-0.5,0-1.1,0.2-1.5,0.4l-0.2-0.7c0.5-0.3,1.2-0.5,1.9-0.5
		c1.8,0,2.2,1.2,2.2,2.4v2.2c0,0.5,0,1,0.1,1.4H230.5z M230.3,99.7c-1.2,0-2.5,0.2-2.5,1.3c0,0.7,0.5,1,1,1c0.8,0,1.2-0.5,1.4-1
		c0-0.1,0.1-0.2,0.1-0.3V99.7z"/>
	<path id="XMLID_217_" class="st6" d="M237.2,102.5c-0.3,0.1-0.9,0.3-1.7,0.3c-1.8,0-2.9-1.2-2.9-3c0-1.8,1.2-3.1,3.1-3.1
		c0.6,0,1.2,0.2,1.5,0.3l-0.2,0.8c-0.3-0.1-0.6-0.3-1.2-0.3c-1.3,0-2.1,1-2.1,2.2c0,1.3,0.9,2.2,2,2.2c0.6,0,1-0.2,1.3-0.3
		L237.2,102.5z"/>
	<path id="XMLID_219_" class="st6" d="M238.9,100c0,1.4,0.9,2,2,2c0.8,0,1.2-0.1,1.6-0.3l0.2,0.8c-0.4,0.2-1,0.4-1.9,0.4
		c-1.8,0-2.9-1.2-2.9-2.9c0-1.8,1-3.1,2.7-3.1c1.9,0,2.4,1.7,2.4,2.7c0,0.2,0,0.4,0,0.5H238.9z M242,99.2c0-0.7-0.3-1.7-1.5-1.7
		c-1.1,0-1.5,1-1.6,1.7H242z"/>
	<path id="XMLID_222_" class="st6" d="M244.4,98.7c0-0.7,0-1.3,0-1.8h0.9l0,1.1h0c0.3-0.8,0.9-1.3,1.6-1.3c0.1,0,0.2,0,0.3,0v1
		c-0.1,0-0.2,0-0.4,0c-0.7,0-1.3,0.6-1.4,1.4c0,0.1,0,0.3,0,0.5v3.1h-1V98.7z"/>
	<path id="XMLID_224_" class="st6" d="M251.2,96.9l0.8,3c0.2,0.6,0.3,1.2,0.4,1.8h0c0.1-0.6,0.3-1.2,0.5-1.8l0.9-3h0.9l0.9,2.9
		c0.2,0.7,0.4,1.3,0.5,1.9h0c0.1-0.6,0.3-1.2,0.4-1.9l0.8-2.9h1l-1.9,5.8h-1l-0.9-2.8c-0.2-0.6-0.4-1.2-0.5-1.9h0
		c-0.1,0.7-0.3,1.3-0.5,1.9l-0.9,2.8h-1l-1.8-5.8H251.2z"/>
	<path id="XMLID_226_" class="st6" d="M260.8,95.2c0,0.4-0.3,0.6-0.7,0.6c-0.4,0-0.6-0.3-0.6-0.6c0-0.4,0.3-0.7,0.7-0.7
		C260.6,94.6,260.8,94.9,260.8,95.2z M259.7,102.7v-5.8h1.1v5.8H259.7z"/>
	<path id="XMLID_229_" class="st6" d="M263.7,95.2v1.7h1.5v0.8h-1.5v3.1c0,0.7,0.2,1.1,0.8,1.1c0.3,0,0.5,0,0.6-0.1l0,0.8
		c-0.2,0.1-0.5,0.1-0.9,0.1c-0.5,0-0.9-0.2-1.1-0.4c-0.3-0.3-0.4-0.8-0.4-1.5v-3.2h-0.9v-0.8h0.9v-1.4L263.7,95.2z"/>
	<path id="XMLID_231_" class="st6" d="M266.4,94.2h1.1v3.6h0c0.2-0.3,0.4-0.6,0.8-0.7c0.3-0.2,0.7-0.3,1.1-0.3c0.8,0,2,0.5,2,2.5
		v3.5h-1.1v-3.3c0-0.9-0.3-1.7-1.3-1.7c-0.7,0-1.2,0.5-1.4,1.1c-0.1,0.1-0.1,0.3-0.1,0.5v3.5h-1.1V94.2z"/>
	<path id="XMLID_233_" class="st6" d="M276.1,96.9l1.1,3.3c0.2,0.5,0.3,1,0.5,1.5h0c0.1-0.5,0.3-1,0.5-1.5l1.1-3.3h1.1l-2.3,5.8h-1
		l-2.2-5.8H276.1z"/>
	<path id="XMLID_235_" class="st6" d="M282.6,95.2c0,0.4-0.3,0.6-0.7,0.6c-0.4,0-0.6-0.3-0.6-0.6c0-0.4,0.3-0.7,0.7-0.7
		C282.3,94.6,282.6,94.9,282.6,95.2z M281.4,102.7v-5.8h1.1v5.8H281.4z"/>
	<path id="XMLID_238_" class="st6" d="M284.2,98.7c0-0.7,0-1.3,0-1.8h0.9l0,1.1h0c0.3-0.8,0.9-1.3,1.6-1.3c0.1,0,0.2,0,0.3,0v1
		c-0.1,0-0.2,0-0.4,0c-0.7,0-1.3,0.6-1.4,1.4c0,0.1,0,0.3,0,0.5v3.1h-1V98.7z"/>
	<path id="XMLID_240_" class="st6" d="M289.7,95.2v1.7h1.5v0.8h-1.5v3.1c0,0.7,0.2,1.1,0.8,1.1c0.3,0,0.5,0,0.6-0.1l0,0.8
		c-0.2,0.1-0.5,0.1-0.9,0.1c-0.5,0-0.9-0.2-1.1-0.4c-0.3-0.3-0.4-0.8-0.4-1.5v-3.2h-0.9v-0.8h0.9v-1.4L289.7,95.2z"/>
	<path id="XMLID_242_" class="st6" d="M297.3,101.1c0,0.6,0,1.1,0,1.6h-0.9l-0.1-0.9h0c-0.3,0.5-0.9,1.1-1.9,1.1c-0.9,0-2-0.5-2-2.5
		v-3.4h1.1v3.2c0,1.1,0.3,1.8,1.3,1.8c0.7,0,1.2-0.5,1.4-1c0.1-0.2,0.1-0.3,0.1-0.5v-3.6h1.1V101.1z"/>
	<path id="XMLID_244_" class="st6" d="M302.2,102.7l-0.1-0.7h0c-0.3,0.5-0.9,0.9-1.8,0.9c-1.2,0-1.8-0.8-1.8-1.7
		c0-1.4,1.2-2.2,3.5-2.2v-0.1c0-0.5-0.1-1.3-1.3-1.3c-0.5,0-1.1,0.2-1.5,0.4l-0.2-0.7c0.5-0.3,1.2-0.5,1.9-0.5
		c1.8,0,2.2,1.2,2.2,2.4v2.2c0,0.5,0,1,0.1,1.4H302.2z M302.1,99.7c-1.2,0-2.5,0.2-2.5,1.3c0,0.7,0.5,1,1,1c0.8,0,1.2-0.5,1.4-1
		c0-0.1,0.1-0.2,0.1-0.3V99.7z"/>
	<path id="XMLID_247_" class="st6" d="M304.8,94.2h1.1v8.5h-1.1V94.2z"/>
	<path id="XMLID_249_" class="st6" d="M311.3,94.6v8.1h-1v-8.1H311.3z"/>
	<path id="XMLID_251_" class="st6" d="M313.1,94.7c0.5-0.1,1.2-0.2,2-0.2c1,0,1.8,0.2,2.3,0.7c0.4,0.4,0.7,1,0.7,1.7
		c0,0.7-0.2,1.3-0.6,1.7c-0.6,0.6-1.5,0.9-2.5,0.9c-0.3,0-0.6,0-0.8-0.1v3.2h-1V94.7z M314.1,98.6c0.2,0.1,0.5,0.1,0.9,0.1
		c1.3,0,2-0.6,2-1.7c0-1.1-0.8-1.6-1.9-1.6c-0.5,0-0.8,0-1,0.1V98.6z"/>
	<path id="XMLID_254_" class="st6" d="M325.2,102.7l-0.1-0.7h0c-0.3,0.5-0.9,0.9-1.8,0.9c-1.2,0-1.8-0.8-1.8-1.7
		c0-1.4,1.2-2.2,3.5-2.2v-0.1c0-0.5-0.1-1.3-1.3-1.3c-0.5,0-1.1,0.2-1.5,0.4l-0.2-0.7c0.5-0.3,1.2-0.5,1.9-0.5
		c1.8,0,2.2,1.2,2.2,2.4v2.2c0,0.5,0,1,0.1,1.4H325.2z M325,99.7c-1.2,0-2.5,0.2-2.5,1.3c0,0.7,0.5,1,1,1c0.8,0,1.2-0.5,1.4-1
		c0-0.1,0.1-0.2,0.1-0.3V99.7z"/>
	<path id="XMLID_257_" class="st6" d="M327.6,101.6c0.3,0.2,0.9,0.4,1.4,0.4c0.8,0,1.1-0.4,1.1-0.9c0-0.5-0.3-0.8-1.1-1.1
		c-1-0.4-1.5-0.9-1.5-1.6c0-0.9,0.8-1.7,2-1.7c0.6,0,1.1,0.2,1.4,0.4l-0.3,0.8c-0.2-0.1-0.6-0.3-1.2-0.3c-0.6,0-1,0.4-1,0.8
		c0,0.5,0.3,0.7,1.1,1c1,0.4,1.5,0.9,1.5,1.8c0,1-0.8,1.7-2.2,1.7c-0.6,0-1.2-0.2-1.6-0.4L327.6,101.6z"/>
	<path id="XMLID_259_" class="st6" d="M338.3,102.7l-0.1-0.7h0c-0.3,0.5-0.9,0.9-1.8,0.9c-1.2,0-1.8-0.8-1.8-1.7
		c0-1.4,1.2-2.2,3.5-2.2v-0.1c0-0.5-0.1-1.3-1.3-1.3c-0.5,0-1.1,0.2-1.5,0.4l-0.2-0.7c0.5-0.3,1.2-0.5,1.9-0.5
		c1.8,0,2.2,1.2,2.2,2.4v2.2c0,0.5,0,1,0.1,1.4H338.3z M338.1,99.7c-1.2,0-2.5,0.2-2.5,1.3c0,0.7,0.5,1,1,1c0.8,0,1.2-0.5,1.4-1
		c0-0.1,0.1-0.2,0.1-0.3V99.7z"/>
	<path id="XMLID_262_" class="st6" d="M340.8,98.4c0-0.6,0-1.1,0-1.6h0.9l0.1,1h0c0.3-0.6,1-1.1,1.9-1.1c0.8,0,2.1,0.5,2.1,2.5v3.5
		h-1.1v-3.3c0-0.9-0.3-1.7-1.3-1.7c-0.7,0-1.2,0.5-1.4,1.1c0,0.1-0.1,0.3-0.1,0.5v3.5h-1.1V98.4z"/>
	<path id="XMLID_264_" class="st6" d="M350.6,100c0,1.4,0.9,2,2,2c0.8,0,1.2-0.1,1.6-0.3l0.2,0.8c-0.4,0.2-1,0.4-1.9,0.4
		c-1.8,0-2.9-1.2-2.9-2.9c0-1.8,1-3.1,2.7-3.1c1.9,0,2.4,1.7,2.4,2.7c0,0.2,0,0.4,0,0.5H350.6z M353.7,99.2c0-0.7-0.3-1.7-1.5-1.7
		c-1.1,0-1.5,1-1.6,1.7H353.7z"/>
	<path id="XMLID_267_" class="st6" d="M356.1,98.4c0-0.6,0-1.1,0-1.6h0.9l0.1,1h0c0.3-0.6,1-1.1,1.9-1.1c0.8,0,2.1,0.5,2.1,2.5v3.5
		h-1.1v-3.3c0-0.9-0.3-1.7-1.3-1.7c-0.7,0-1.2,0.5-1.4,1.1c0,0.1-0.1,0.3-0.1,0.5v3.5h-1.1V98.4z"/>
	<path id="XMLID_269_" class="st6" d="M363.9,95.2v1.7h1.5v0.8h-1.5v3.1c0,0.7,0.2,1.1,0.8,1.1c0.3,0,0.5,0,0.6-0.1l0,0.8
		c-0.2,0.1-0.5,0.1-0.9,0.1c-0.5,0-0.9-0.2-1.1-0.4c-0.3-0.3-0.4-0.8-0.4-1.5v-3.2H362v-0.8h0.9v-1.4L363.9,95.2z"/>
	<path id="XMLID_271_" class="st6" d="M366.6,98.7c0-0.7,0-1.3,0-1.8h0.9l0,1.1h0c0.3-0.8,0.9-1.3,1.6-1.3c0.1,0,0.2,0,0.3,0v1
		c-0.1,0-0.2,0-0.4,0c-0.7,0-1.3,0.6-1.4,1.4c0,0.1,0,0.3,0,0.5v3.1h-1V98.7z"/>
	<path id="XMLID_273_" class="st6" d="M371.2,96.9l1.3,3.4c0.1,0.4,0.3,0.8,0.4,1.2h0c0.1-0.3,0.2-0.8,0.4-1.2l1.2-3.4h1.1L374,101
		c-0.8,2-1.3,3-2,3.6c-0.5,0.5-1,0.6-1.3,0.7l-0.3-0.9c0.3-0.1,0.6-0.3,0.9-0.5c0.3-0.2,0.6-0.6,0.9-1.2c0-0.1,0.1-0.2,0.1-0.3
		c0-0.1,0-0.1-0.1-0.3l-2.1-5.3H371.2z"/>
	<path id="XMLID_275_" class="st6" d="M379.1,98.8c0-0.7,0-1.3,0-1.9h0.9l0,1h0c0.4-0.7,1.1-1.1,2.1-1.1c1.4,0,2.5,1.2,2.5,3
		c0,2.1-1.3,3.1-2.6,3.1c-0.8,0-1.4-0.3-1.8-0.9h0v3.2h-1V98.8z M380.1,100.3c0,0.2,0,0.3,0,0.4c0.2,0.7,0.8,1.2,1.6,1.2
		c1.1,0,1.8-0.9,1.8-2.2c0-1.2-0.6-2.2-1.7-2.2c-0.7,0-1.4,0.5-1.6,1.3c0,0.1-0.1,0.3-0.1,0.4V100.3z"/>
	<path id="XMLID_278_" class="st6" d="M391.1,99.7c0,2.1-1.5,3.1-2.9,3.1c-1.6,0-2.8-1.2-2.8-3c0-1.9,1.3-3.1,2.9-3.1
		C390,96.7,391.1,97.9,391.1,99.7z M386.5,99.8c0,1.3,0.7,2.2,1.8,2.2c1,0,1.8-0.9,1.8-2.3c0-1-0.5-2.2-1.7-2.2
		C387.1,97.5,386.5,98.7,386.5,99.8z"/>
	<path id="XMLID_281_" class="st6" d="M393.7,95.2c0,0.4-0.3,0.6-0.7,0.6c-0.4,0-0.6-0.3-0.6-0.6c0-0.4,0.3-0.7,0.7-0.7
		C393.4,94.6,393.7,94.9,393.7,95.2z M392.5,102.7v-5.8h1.1v5.8H392.5z"/>
	<path id="XMLID_284_" class="st6" d="M395.3,98.4c0-0.6,0-1.1,0-1.6h0.9l0.1,1h0c0.3-0.6,1-1.1,1.9-1.1c0.8,0,2.1,0.5,2.1,2.5v3.5
		h-1.1v-3.3c0-0.9-0.3-1.7-1.3-1.7c-0.7,0-1.2,0.5-1.4,1.1c0,0.1-0.1,0.3-0.1,0.5v3.5h-1.1V98.4z"/>
	<path id="XMLID_286_" class="st6" d="M403.2,95.2v1.7h1.5v0.8h-1.5v3.1c0,0.7,0.2,1.1,0.8,1.1c0.3,0,0.5,0,0.6-0.1l0,0.8
		c-0.2,0.1-0.5,0.1-0.9,0.1c-0.5,0-0.9-0.2-1.1-0.4c-0.3-0.3-0.4-0.8-0.4-1.5v-3.2h-0.9v-0.8h0.9v-1.4L403.2,95.2z"/>
</g>
</svg>
