<?xml version="1.0" encoding="utf-8"?>
<!-- Generator: Adobe Illustrator 23.1.0, SVG Export Plug-In . SVG Version: 6.00 Build 0)  -->
<svg version="1.1" id="Layer_1" xmlns="http://www.w3.org/2000/svg" xmlns:xlink="http://www.w3.org/1999/xlink" x="0px" y="0px"
	 viewBox="0 0 12.8 12.4" style="enable-background:new 0 0 12.8 12.4;" xml:space="preserve">
<style type="text/css">
	.st0{fill:#F1932B;}
	.st1{fill:#FFFFFF;}
</style>
<g>
	<g>
		<path class="st0" d="M12.3,6.2c0,3.2-2.6,5.7-5.7,5.7c-3.2,0-5.7-2.6-5.7-5.7c0-3.2,2.6-5.7,5.7-5.7C9.8,0.5,12.3,3,12.3,6.2z"/>
		<g>
			<path d="M6.6,9.8c2,0,3.7-1.7,3.7-3.7c0-2-1.7-3.7-3.7-3.7V9.8z"/>
			<g>
				<path class="st1" d="M6.6,10.7C4.1,10.7,2,8.7,2,6.1c0-1.5,0.7-2.8,1.8-3.7l0.6,0.8C3.5,3.9,3,5,3,6.1c0,2,1.6,3.6,3.6,3.6
					c2,0,3.6-1.6,3.6-3.6c0-1.2-0.5-2.2-1.5-2.9l0.6-0.8c1.2,0.9,1.9,2.2,1.9,3.7C11.2,8.7,9.2,10.7,6.6,10.7z"/>
				<rect x="6.2" y="1.6" class="st1" width="1" height="5.2"/>
			</g>
		</g>
	</g>
</g>
</svg>
