<?xml version="1.0" encoding="utf-8"?>
<!-- Generator: Adobe Illustrator 23.1.0, SVG Export Plug-In . SVG Version: 6.00 Build 0)  -->
<svg version="1.1" id="Layer_1" xmlns="http://www.w3.org/2000/svg" xmlns:xlink="http://www.w3.org/1999/xlink" x="0px" y="0px"
	 viewBox="0 0 286.4 265.4" style="enable-background:new 0 0 286.4 265.4;" xml:space="preserve">
<style type="text/css">
	.st0{fill:#F1932B;}
	.st1{fill:#FFFFFF;}
</style>
<g>
	<g>
		<path class="st0" d="M268.2,133.8c0,73-59.3,130.1-130.1,130.1C65.1,263.9,8,204.6,8,133.8C8,60.8,67.3,3.7,138.1,3.7
			C211.1,3.7,268.2,60.8,268.2,133.8z"/>
		<g>
			<path d="M138.1,216c45.6,0,84.5-38.8,84.5-84.5s-38.8-84.5-84.5-84.5C138.1,47.1,138.1,216,138.1,216z"/>
			<g>
				<path class="st1" d="M138.1,236.5c-57.1,0-105-45.6-105-105c0-34.2,16-63.9,41.1-84.5l13.7,18.3c-20.5,16-32,41.1-32,66.2
					c0,45.6,36.5,82.2,82.2,82.2s82.2-36.5,82.2-82.2c0-27.4-11.4-50.2-34.2-66.2l13.7-18.3c27.4,20.5,43.4,50.2,43.4,84.5
					C243.1,190.9,197.4,236.5,138.1,236.5z"/>
				<rect x="129" y="28.8" class="st1" width="22.8" height="118.7"/>
			</g>
		</g>
	</g>
</g>
</svg>
