<?xml version="1.0" encoding="utf-8"?>
<!-- Generator: Adobe Illustrator 23.1.0, SVG Export Plug-In . SVG Version: 6.00 Build 0)  -->
<svg version="1.1" id="Layer_1" xmlns="http://www.w3.org/2000/svg" xmlns:xlink="http://www.w3.org/1999/xlink" x="0px" y="0px"
	 viewBox="0 0 12.8 12.4" style="enable-background:new 0 0 12.8 12.4;" xml:space="preserve">
<style type="text/css">
	.st0{fill:none;stroke:#FFFFFF;stroke-width:0.225;stroke-miterlimit:10;}
	.st1{fill:none;}
</style>
<g>
	<g>
		<path class="st0" d="M11.8,6.2c0,2.8-2.3,5.1-5.1,5.1c-2.8,0-5.1-2.3-5.1-5.1C1.5,3.3,3.8,1,6.6,1C9.5,1,11.8,3.3,11.8,6.2z"/>
		<g>
			<path class="st1" d="M6.6,9.5C8.5,9.5,10,8,10,6.1c0-1.8-1.5-3.3-3.3-3.3V9.5z"/>
			<g>
				<path class="st0" d="M6.6,10.3c-2.3,0-4.1-1.9-4.1-4.1c0-1.3,0.6-2.5,1.6-3.3l0.5,0.7C3.8,4.2,3.4,5.1,3.4,6.1
					c0,1.8,1.5,3.3,3.3,3.3c1.8,0,3.3-1.5,3.3-3.3c0-1-0.5-2-1.3-2.6l0.5-0.7c1.1,0.8,1.7,2,1.7,3.3C10.8,8.4,8.9,10.3,6.6,10.3z"/>
				<rect x="6.3" y="2" class="st0" width="0.9" height="4.7"/>
			</g>
		</g>
	</g>
</g>
<path class="st0" d="M7.2,2.8c0,0,0.8,0.1,1.4,0.7"/>
<line class="st0" x1="6.6" y1="6.9" x2="6.6" y2="9.4"/>
</svg>
